<mxfile host="65bd71144e" pages="5">
    <diagram id="R2lEEEUBdFMjLlhIrx00" name="Page-1">
        <mxGraphModel dx="31" dy="471" grid="1" gridSize="10" guides="1" tooltips="1" connect="1" arrows="1" fold="1" page="1" pageScale="1" pageWidth="850" pageHeight="1100" math="0" shadow="0" extFonts="Permanent Marker^https://fonts.googleapis.com/css?family=Permanent+Marker">
            <root>
                <mxCell id="0"/>
                <mxCell id="1" parent="0"/>
                <mxCell id="5Pc2CLHGwPRq0g4GQhlB-3" value="&lt;div&gt;Project&lt;/div&gt;" style="html=1;" parent="1" vertex="1">
                    <mxGeometry x="1027" y="160" width="113" height="60" as="geometry"/>
                </mxCell>
                <mxCell id="5Pc2CLHGwPRq0g4GQhlB-150" value="&lt;u&gt;id&lt;/u&gt;" style="ellipse;whiteSpace=wrap;html=1;" parent="1" vertex="1">
                    <mxGeometry x="995" y="100" width="80" height="50" as="geometry"/>
                </mxCell>
                <mxCell id="5Pc2CLHGwPRq0g4GQhlB-152" value="" style="endArrow=none;html=1;rounded=0;entryX=1;entryY=1;entryDx=0;entryDy=0;exitX=0.456;exitY=-0.008;exitDx=0;exitDy=0;exitPerimeter=0;" parent="1" source="5Pc2CLHGwPRq0g4GQhlB-3" target="5Pc2CLHGwPRq0g4GQhlB-150" edge="1">
                    <mxGeometry width="50" height="50" relative="1" as="geometry">
                        <mxPoint x="1025" y="190" as="sourcePoint"/>
                        <mxPoint x="1145" y="330" as="targetPoint"/>
                    </mxGeometry>
                </mxCell>
                <mxCell id="aUzTrZQ5TdjRwzqVfGWF-3" value="&lt;div&gt;Partition&lt;/div&gt;" style="rounded=0;whiteSpace=wrap;html=1;" parent="1" vertex="1">
                    <mxGeometry x="1024.5" y="370" width="118" height="60" as="geometry"/>
                </mxCell>
                <mxCell id="aUzTrZQ5TdjRwzqVfGWF-4" value="Application" style="rounded=0;whiteSpace=wrap;html=1;" parent="1" vertex="1">
                    <mxGeometry x="1024.5" y="590" width="120" height="60" as="geometry"/>
                </mxCell>
                <mxCell id="aUzTrZQ5TdjRwzqVfGWF-6" value="has" style="rhombus;whiteSpace=wrap;html=1;" parent="1" vertex="1">
                    <mxGeometry x="1054.5" y="270" width="58" height="40" as="geometry"/>
                </mxCell>
                <mxCell id="aUzTrZQ5TdjRwzqVfGWF-8" value="" style="endArrow=none;html=1;rounded=0;entryX=0.5;entryY=1;entryDx=0;entryDy=0;exitX=0.5;exitY=0;exitDx=0;exitDy=0;" parent="1" source="aUzTrZQ5TdjRwzqVfGWF-6" target="5Pc2CLHGwPRq0g4GQhlB-3" edge="1">
                    <mxGeometry relative="1" as="geometry">
                        <mxPoint x="775" y="410" as="sourcePoint"/>
                        <mxPoint x="935" y="410" as="targetPoint"/>
                    </mxGeometry>
                </mxCell>
                <mxCell id="aUzTrZQ5TdjRwzqVfGWF-9" value="1" style="resizable=0;html=1;align=right;verticalAlign=bottom;" parent="aUzTrZQ5TdjRwzqVfGWF-8" connectable="0" vertex="1">
                    <mxGeometry x="1" relative="1" as="geometry">
                        <mxPoint x="-2" y="20" as="offset"/>
                    </mxGeometry>
                </mxCell>
                <mxCell id="aUzTrZQ5TdjRwzqVfGWF-10" value="" style="endArrow=none;html=1;rounded=0;exitX=0.5;exitY=1;exitDx=0;exitDy=0;entryX=0.5;entryY=0;entryDx=0;entryDy=0;" parent="1" source="aUzTrZQ5TdjRwzqVfGWF-6" target="aUzTrZQ5TdjRwzqVfGWF-3" edge="1">
                    <mxGeometry relative="1" as="geometry">
                        <mxPoint x="815" y="460" as="sourcePoint"/>
                        <mxPoint x="975" y="460" as="targetPoint"/>
                    </mxGeometry>
                </mxCell>
                <mxCell id="aUzTrZQ5TdjRwzqVfGWF-11" value="N" style="resizable=0;html=1;align=right;verticalAlign=bottom;" parent="aUzTrZQ5TdjRwzqVfGWF-10" connectable="0" vertex="1">
                    <mxGeometry x="1" relative="1" as="geometry"/>
                </mxCell>
                <mxCell id="aUzTrZQ5TdjRwzqVfGWF-14" value="" style="endArrow=none;html=1;rounded=0;entryX=0.5;entryY=1;entryDx=0;entryDy=0;exitX=0.5;exitY=0;exitDx=0;exitDy=0;" parent="1" target="aUzTrZQ5TdjRwzqVfGWF-3" edge="1">
                    <mxGeometry relative="1" as="geometry">
                        <mxPoint x="1083.5" y="490" as="sourcePoint"/>
                        <mxPoint x="1097" y="290" as="targetPoint"/>
                    </mxGeometry>
                </mxCell>
                <mxCell id="aUzTrZQ5TdjRwzqVfGWF-15" value="1" style="resizable=0;html=1;align=right;verticalAlign=bottom;" parent="aUzTrZQ5TdjRwzqVfGWF-14" connectable="0" vertex="1">
                    <mxGeometry x="1" relative="1" as="geometry">
                        <mxPoint x="-2" y="20" as="offset"/>
                    </mxGeometry>
                </mxCell>
                <mxCell id="aUzTrZQ5TdjRwzqVfGWF-16" value="" style="endArrow=none;html=1;rounded=0;exitX=0.5;exitY=1;exitDx=0;exitDy=0;" parent="1" target="aUzTrZQ5TdjRwzqVfGWF-4" edge="1">
                    <mxGeometry relative="1" as="geometry">
                        <mxPoint x="1083.5" y="530" as="sourcePoint"/>
                        <mxPoint x="1097" y="410" as="targetPoint"/>
                    </mxGeometry>
                </mxCell>
                <mxCell id="aUzTrZQ5TdjRwzqVfGWF-17" value="N" style="resizable=0;html=1;align=right;verticalAlign=bottom;" parent="aUzTrZQ5TdjRwzqVfGWF-16" connectable="0" vertex="1">
                    <mxGeometry x="1" relative="1" as="geometry"/>
                </mxCell>
                <mxCell id="aUzTrZQ5TdjRwzqVfGWF-18" value="&lt;u&gt;id&lt;/u&gt;" style="ellipse;whiteSpace=wrap;html=1;" parent="1" vertex="1">
                    <mxGeometry x="895" y="330" width="80" height="50" as="geometry"/>
                </mxCell>
                <mxCell id="aUzTrZQ5TdjRwzqVfGWF-19" value="" style="endArrow=none;html=1;rounded=0;entryX=1;entryY=1;entryDx=0;entryDy=0;exitX=0;exitY=0.25;exitDx=0;exitDy=0;" parent="1" source="aUzTrZQ5TdjRwzqVfGWF-3" target="aUzTrZQ5TdjRwzqVfGWF-18" edge="1">
                    <mxGeometry width="50" height="50" relative="1" as="geometry">
                        <mxPoint x="1042" y="182.5" as="sourcePoint"/>
                        <mxPoint x="983.2842712474501" y="212.67766952965644" as="targetPoint"/>
                    </mxGeometry>
                </mxCell>
                <mxCell id="aUzTrZQ5TdjRwzqVfGWF-47" value="has" style="rhombus;whiteSpace=wrap;html=1;" parent="1" vertex="1">
                    <mxGeometry x="1055.5" y="490" width="58" height="40" as="geometry"/>
                </mxCell>
                <mxCell id="aUzTrZQ5TdjRwzqVfGWF-53" value="&lt;u&gt;id&lt;/u&gt;" style="ellipse;whiteSpace=wrap;html=1;" parent="1" vertex="1">
                    <mxGeometry x="947" y="510" width="80" height="50" as="geometry"/>
                </mxCell>
                <mxCell id="aUzTrZQ5TdjRwzqVfGWF-54" value="" style="endArrow=none;html=1;rounded=0;entryX=0.129;entryY=-0.002;entryDx=0;entryDy=0;entryPerimeter=0;" parent="1" source="aUzTrZQ5TdjRwzqVfGWF-53" target="aUzTrZQ5TdjRwzqVfGWF-4" edge="1">
                    <mxGeometry width="50" height="50" relative="1" as="geometry">
                        <mxPoint x="1034.5" y="395" as="sourcePoint"/>
                        <mxPoint x="1025" y="620" as="targetPoint"/>
                    </mxGeometry>
                </mxCell>
                <mxCell id="aUzTrZQ5TdjRwzqVfGWF-56" value="Subsystem" style="rounded=0;whiteSpace=wrap;html=1;" parent="1" vertex="1">
                    <mxGeometry x="1335" y="590" width="118" height="60" as="geometry"/>
                </mxCell>
                <mxCell id="aUzTrZQ5TdjRwzqVfGWF-57" value="has" style="rhombus;whiteSpace=wrap;html=1;" parent="1" vertex="1">
                    <mxGeometry x="1205" y="600" width="58" height="40" as="geometry"/>
                </mxCell>
                <mxCell id="aUzTrZQ5TdjRwzqVfGWF-58" value="" style="endArrow=none;html=1;rounded=0;entryX=1;entryY=0.5;entryDx=0;entryDy=0;exitX=0;exitY=0.5;exitDx=0;exitDy=0;" parent="1" source="aUzTrZQ5TdjRwzqVfGWF-57" target="aUzTrZQ5TdjRwzqVfGWF-4" edge="1">
                    <mxGeometry relative="1" as="geometry">
                        <mxPoint x="1093.5" y="500" as="sourcePoint"/>
                        <mxPoint x="1093.5" y="440" as="targetPoint"/>
                    </mxGeometry>
                </mxCell>
                <mxCell id="aUzTrZQ5TdjRwzqVfGWF-59" value="1" style="resizable=0;html=1;align=right;verticalAlign=bottom;" parent="aUzTrZQ5TdjRwzqVfGWF-58" connectable="0" vertex="1">
                    <mxGeometry x="1" relative="1" as="geometry">
                        <mxPoint x="-2" y="20" as="offset"/>
                    </mxGeometry>
                </mxCell>
                <mxCell id="aUzTrZQ5TdjRwzqVfGWF-62" value="" style="endArrow=none;html=1;rounded=0;exitX=1;exitY=0.5;exitDx=0;exitDy=0;entryX=0;entryY=0.5;entryDx=0;entryDy=0;" parent="1" source="aUzTrZQ5TdjRwzqVfGWF-57" target="aUzTrZQ5TdjRwzqVfGWF-56" edge="1">
                    <mxGeometry relative="1" as="geometry">
                        <mxPoint x="1093.5" y="540" as="sourcePoint"/>
                        <mxPoint x="1094.1666666666665" y="600" as="targetPoint"/>
                    </mxGeometry>
                </mxCell>
                <mxCell id="aUzTrZQ5TdjRwzqVfGWF-63" value="N" style="resizable=0;html=1;align=right;verticalAlign=bottom;" parent="aUzTrZQ5TdjRwzqVfGWF-62" connectable="0" vertex="1">
                    <mxGeometry x="1" relative="1" as="geometry"/>
                </mxCell>
                <mxCell id="aUzTrZQ5TdjRwzqVfGWF-65" value="&lt;u&gt;material_group&lt;/u&gt;" style="ellipse;whiteSpace=wrap;html=1;" parent="1" vertex="1">
                    <mxGeometry x="1265" y="515" width="95" height="55" as="geometry"/>
                </mxCell>
                <mxCell id="aUzTrZQ5TdjRwzqVfGWF-66" value="" style="endArrow=none;html=1;rounded=0;entryX=0.202;entryY=-0.025;entryDx=0;entryDy=0;entryPerimeter=0;exitX=0.5;exitY=1;exitDx=0;exitDy=0;" parent="1" source="aUzTrZQ5TdjRwzqVfGWF-65" target="aUzTrZQ5TdjRwzqVfGWF-56" edge="1">
                    <mxGeometry width="50" height="50" relative="1" as="geometry">
                        <mxPoint x="1315" y="560" as="sourcePoint"/>
                        <mxPoint x="1035" y="630" as="targetPoint"/>
                    </mxGeometry>
                </mxCell>
                <mxCell id="aUzTrZQ5TdjRwzqVfGWF-67" value="effect" style="ellipse;whiteSpace=wrap;html=1;" parent="1" vertex="1">
                    <mxGeometry x="1395" y="510" width="80" height="50" as="geometry"/>
                </mxCell>
                <mxCell id="aUzTrZQ5TdjRwzqVfGWF-68" value="" style="endArrow=none;html=1;rounded=0;entryX=0.691;entryY=0.012;entryDx=0;entryDy=0;entryPerimeter=0;exitX=0.388;exitY=0.984;exitDx=0;exitDy=0;exitPerimeter=0;" parent="1" source="aUzTrZQ5TdjRwzqVfGWF-67" target="aUzTrZQ5TdjRwzqVfGWF-56" edge="1">
                    <mxGeometry width="50" height="50" relative="1" as="geometry">
                        <mxPoint x="1315" y="575" as="sourcePoint"/>
                        <mxPoint x="1368.8360000000002" y="598.5" as="targetPoint"/>
                    </mxGeometry>
                </mxCell>
                <mxCell id="aUzTrZQ5TdjRwzqVfGWF-69" value="failure_mode_effect" style="ellipse;whiteSpace=wrap;html=1;" parent="1" vertex="1">
                    <mxGeometry x="870" y="565" width="110" height="60" as="geometry"/>
                </mxCell>
                <mxCell id="aUzTrZQ5TdjRwzqVfGWF-70" value="" style="endArrow=none;html=1;rounded=0;entryX=0;entryY=0.25;entryDx=0;entryDy=0;exitX=1;exitY=0.5;exitDx=0;exitDy=0;" parent="1" source="aUzTrZQ5TdjRwzqVfGWF-69" target="aUzTrZQ5TdjRwzqVfGWF-4" edge="1">
                    <mxGeometry width="50" height="50" relative="1" as="geometry">
                        <mxPoint x="987.385457844277" y="585.7184556643842" as="sourcePoint"/>
                        <mxPoint x="1035" y="630" as="targetPoint"/>
                    </mxGeometry>
                </mxCell>
                <mxCell id="aUzTrZQ5TdjRwzqVfGWF-71" value="aircraft_level_effect" style="ellipse;whiteSpace=wrap;html=1;" parent="1" vertex="1">
                    <mxGeometry x="870" y="630" width="110" height="60" as="geometry"/>
                </mxCell>
                <mxCell id="aUzTrZQ5TdjRwzqVfGWF-72" value="" style="endArrow=none;html=1;rounded=0;exitX=1;exitY=0;exitDx=0;exitDy=0;entryX=0;entryY=0.75;entryDx=0;entryDy=0;" parent="1" source="aUzTrZQ5TdjRwzqVfGWF-71" target="aUzTrZQ5TdjRwzqVfGWF-4" edge="1">
                    <mxGeometry width="50" height="50" relative="1" as="geometry">
                        <mxPoint x="1013.6002667605071" y="697.5220592019123" as="sourcePoint"/>
                        <mxPoint x="1045" y="660" as="targetPoint"/>
                    </mxGeometry>
                </mxCell>
                <mxCell id="aUzTrZQ5TdjRwzqVfGWF-73" value="criticality" style="ellipse;whiteSpace=wrap;html=1;" parent="1" vertex="1">
                    <mxGeometry x="925" y="690" width="90" height="50" as="geometry"/>
                </mxCell>
                <mxCell id="aUzTrZQ5TdjRwzqVfGWF-74" value="" style="endArrow=none;html=1;rounded=0;exitX=0.672;exitY=0.023;exitDx=0;exitDy=0;exitPerimeter=0;" parent="1" source="aUzTrZQ5TdjRwzqVfGWF-73" target="aUzTrZQ5TdjRwzqVfGWF-4" edge="1">
                    <mxGeometry width="50" height="50" relative="1" as="geometry">
                        <mxPoint x="1032.4199999999996" y="711.74" as="sourcePoint"/>
                        <mxPoint x="1056.2199999999998" y="661.02" as="targetPoint"/>
                    </mxGeometry>
                </mxCell>
                <mxCell id="aUzTrZQ5TdjRwzqVfGWF-75" value="flight_phase" style="ellipse;whiteSpace=wrap;html=1;" parent="1" vertex="1">
                    <mxGeometry x="1140" y="520" width="90" height="50" as="geometry"/>
                </mxCell>
                <mxCell id="aUzTrZQ5TdjRwzqVfGWF-76" value="" style="endArrow=none;html=1;rounded=0;entryX=0.972;entryY=0.012;entryDx=0;entryDy=0;entryPerimeter=0;" parent="1" source="aUzTrZQ5TdjRwzqVfGWF-75" target="aUzTrZQ5TdjRwzqVfGWF-4" edge="1">
                    <mxGeometry width="50" height="50" relative="1" as="geometry">
                        <mxPoint x="1002.9799999999998" y="730.1500000000001" as="sourcePoint"/>
                        <mxPoint x="1044.94" y="660" as="targetPoint"/>
                    </mxGeometry>
                </mxCell>
                <mxCell id="aUzTrZQ5TdjRwzqVfGWF-77" value="VariantSpecific" style="rounded=0;whiteSpace=wrap;html=1;" parent="1" vertex="1">
                    <mxGeometry x="1335" y="750" width="118" height="60" as="geometry"/>
                </mxCell>
                <mxCell id="aUzTrZQ5TdjRwzqVfGWF-78" value="is" style="rhombus;whiteSpace=wrap;html=1;" parent="1" vertex="1">
                    <mxGeometry x="1365" y="680" width="58" height="40" as="geometry"/>
                </mxCell>
                <mxCell id="aUzTrZQ5TdjRwzqVfGWF-79" value="" style="endArrow=none;html=1;rounded=0;entryX=0.5;entryY=1;entryDx=0;entryDy=0;exitX=0.5;exitY=0;exitDx=0;exitDy=0;" parent="1" source="aUzTrZQ5TdjRwzqVfGWF-78" target="aUzTrZQ5TdjRwzqVfGWF-56" edge="1">
                    <mxGeometry relative="1" as="geometry">
                        <mxPoint x="1215" y="630" as="sourcePoint"/>
                        <mxPoint x="1154.5" y="630" as="targetPoint"/>
                    </mxGeometry>
                </mxCell>
                <mxCell id="aUzTrZQ5TdjRwzqVfGWF-80" value="1" style="resizable=0;html=1;align=right;verticalAlign=bottom;" parent="aUzTrZQ5TdjRwzqVfGWF-79" connectable="0" vertex="1">
                    <mxGeometry x="1" relative="1" as="geometry">
                        <mxPoint x="-2" y="20" as="offset"/>
                    </mxGeometry>
                </mxCell>
                <mxCell id="aUzTrZQ5TdjRwzqVfGWF-81" value="" style="endArrow=none;html=1;rounded=0;entryX=0.5;entryY=0;entryDx=0;entryDy=0;exitX=0.5;exitY=1;exitDx=0;exitDy=0;" parent="1" source="aUzTrZQ5TdjRwzqVfGWF-78" target="aUzTrZQ5TdjRwzqVfGWF-77" edge="1">
                    <mxGeometry relative="1" as="geometry">
                        <mxPoint x="1225" y="640" as="sourcePoint"/>
                        <mxPoint x="1164.5" y="640" as="targetPoint"/>
                    </mxGeometry>
                </mxCell>
                <mxCell id="aUzTrZQ5TdjRwzqVfGWF-82" value="1" style="resizable=0;html=1;align=right;verticalAlign=bottom;" parent="aUzTrZQ5TdjRwzqVfGWF-81" connectable="0" vertex="1">
                    <mxGeometry x="1" relative="1" as="geometry">
                        <mxPoint x="-2" y="20" as="offset"/>
                    </mxGeometry>
                </mxCell>
                <mxCell id="aUzTrZQ5TdjRwzqVfGWF-83" value="variant" style="ellipse;whiteSpace=wrap;html=1;" parent="1" vertex="1">
                    <mxGeometry x="1470" y="660" width="80" height="50" as="geometry"/>
                </mxCell>
                <mxCell id="aUzTrZQ5TdjRwzqVfGWF-84" value="" style="endArrow=none;html=1;rounded=0;exitX=0;exitY=0.4;exitDx=0;exitDy=0;exitPerimeter=0;entryX=1;entryY=0.5;entryDx=0;entryDy=0;" parent="1" source="aUzTrZQ5TdjRwzqVfGWF-83" target="aUzTrZQ5TdjRwzqVfGWF-78" edge="1">
                    <mxGeometry width="50" height="50" relative="1" as="geometry">
                        <mxPoint x="1436.04" y="569.2" as="sourcePoint"/>
                        <mxPoint x="1425" y="720" as="targetPoint"/>
                    </mxGeometry>
                </mxCell>
                <mxCell id="aUzTrZQ5TdjRwzqVfGWF-87" value="failure_detection" style="ellipse;whiteSpace=wrap;html=1;" parent="1" vertex="1">
                    <mxGeometry x="1485" y="755" width="100" height="50" as="geometry"/>
                </mxCell>
                <mxCell id="aUzTrZQ5TdjRwzqVfGWF-89" value="" style="endArrow=none;html=1;rounded=0;exitX=0;exitY=0.4;exitDx=0;exitDy=0;exitPerimeter=0;entryX=0.999;entryY=0.608;entryDx=0;entryDy=0;entryPerimeter=0;" parent="1" source="aUzTrZQ5TdjRwzqVfGWF-87" target="aUzTrZQ5TdjRwzqVfGWF-77" edge="1">
                    <mxGeometry width="50" height="50" relative="1" as="geometry">
                        <mxPoint x="1505" y="720.0000000000002" as="sourcePoint"/>
                        <mxPoint x="1433" y="729.9999999999998" as="targetPoint"/>
                    </mxGeometry>
                </mxCell>
                <mxCell id="aUzTrZQ5TdjRwzqVfGWF-90" value="mission" style="ellipse;whiteSpace=wrap;html=1;" parent="1" vertex="1">
                    <mxGeometry x="1140" y="650" width="90" height="50" as="geometry"/>
                </mxCell>
                <mxCell id="aUzTrZQ5TdjRwzqVfGWF-91" value="" style="endArrow=none;html=1;rounded=0;entryX=0.75;entryY=1;entryDx=0;entryDy=0;" parent="1" source="aUzTrZQ5TdjRwzqVfGWF-90" target="aUzTrZQ5TdjRwzqVfGWF-4" edge="1">
                    <mxGeometry width="50" height="50" relative="1" as="geometry">
                        <mxPoint x="1052.9799999999998" y="710.1499999999999" as="sourcePoint"/>
                        <mxPoint x="1078.9591391141607" y="660" as="targetPoint"/>
                    </mxGeometry>
                </mxCell>
                <mxCell id="aUzTrZQ5TdjRwzqVfGWF-92" value="category" style="ellipse;whiteSpace=wrap;html=1;" parent="1" vertex="1">
                    <mxGeometry x="1045" y="690" width="90" height="50" as="geometry"/>
                </mxCell>
                <mxCell id="aUzTrZQ5TdjRwzqVfGWF-93" value="" style="endArrow=none;html=1;rounded=0;entryX=0.421;entryY=1;entryDx=0;entryDy=0;entryPerimeter=0;" parent="1" source="aUzTrZQ5TdjRwzqVfGWF-92" target="aUzTrZQ5TdjRwzqVfGWF-4" edge="1">
                    <mxGeometry width="50" height="50" relative="1" as="geometry">
                        <mxPoint x="1001.5999999999999" y="699.8500000000001" as="sourcePoint"/>
                        <mxPoint x="1054.600214745884" y="660" as="targetPoint"/>
                    </mxGeometry>
                </mxCell>
                <mxCell id="aUzTrZQ5TdjRwzqVfGWF-96" value="&lt;h1&gt;EER Diagram&lt;/h1&gt;" style="text;html=1;strokeColor=none;fillColor=none;spacing=5;spacingTop=-20;whiteSpace=wrap;overflow=hidden;rounded=0;" parent="1" vertex="1">
                    <mxGeometry x="1135" y="70" width="190" height="60" as="geometry"/>
                </mxCell>
                <mxCell id="aUzTrZQ5TdjRwzqVfGWF-97" value="&lt;h1&gt;Relationship Diagram&lt;/h1&gt;" style="text;html=1;strokeColor=none;fillColor=none;spacing=5;spacingTop=-20;whiteSpace=wrap;overflow=hidden;rounded=0;" parent="1" vertex="1">
                    <mxGeometry x="1715" y="70" width="260" height="60" as="geometry"/>
                </mxCell>
                <mxCell id="aUzTrZQ5TdjRwzqVfGWF-99" value="comment" style="ellipse;whiteSpace=wrap;html=1;" parent="1" vertex="1">
                    <mxGeometry x="1505" y="540" width="80" height="50" as="geometry"/>
                </mxCell>
                <mxCell id="aUzTrZQ5TdjRwzqVfGWF-100" value="" style="endArrow=none;html=1;rounded=0;entryX=1;entryY=0.25;entryDx=0;entryDy=0;exitX=0.05;exitY=0.78;exitDx=0;exitDy=0;exitPerimeter=0;" parent="1" source="aUzTrZQ5TdjRwzqVfGWF-99" target="aUzTrZQ5TdjRwzqVfGWF-56" edge="1">
                    <mxGeometry width="50" height="50" relative="1" as="geometry">
                        <mxPoint x="1436.04" y="569.2" as="sourcePoint"/>
                        <mxPoint x="1426.538" y="600.72" as="targetPoint"/>
                    </mxGeometry>
                </mxCell>
                <mxCell id="aUzTrZQ5TdjRwzqVfGWF-106" value="&lt;u&gt;project_id&lt;/u&gt;" style="whiteSpace=wrap;html=1;align=center;" parent="1" vertex="1">
                    <mxGeometry x="1705" y="170" width="90" height="30" as="geometry"/>
                </mxCell>
                <mxCell id="aUzTrZQ5TdjRwzqVfGWF-108" value="&lt;b&gt;Project&lt;/b&gt;" style="text;html=1;align=center;verticalAlign=middle;resizable=0;points=[];autosize=1;strokeColor=none;fillColor=none;" parent="1" vertex="1">
                    <mxGeometry x="1705" y="140" width="60" height="30" as="geometry"/>
                </mxCell>
                <mxCell id="aUzTrZQ5TdjRwzqVfGWF-110" value="&lt;u&gt;partition_id&lt;/u&gt;" style="whiteSpace=wrap;html=1;align=center;" parent="1" vertex="1">
                    <mxGeometry x="1710" y="250" width="90" height="30" as="geometry"/>
                </mxCell>
                <mxCell id="aUzTrZQ5TdjRwzqVfGWF-111" value="&lt;b&gt;Partition&lt;/b&gt;" style="text;html=1;align=center;verticalAlign=middle;resizable=0;points=[];autosize=1;strokeColor=none;fillColor=none;" parent="1" vertex="1">
                    <mxGeometry x="1700" y="220" width="70" height="30" as="geometry"/>
                </mxCell>
                <mxCell id="aUzTrZQ5TdjRwzqVfGWF-114" style="edgeStyle=orthogonalEdgeStyle;rounded=0;orthogonalLoop=1;jettySize=auto;html=1;entryX=1;entryY=0.5;entryDx=0;entryDy=0;" parent="1" source="aUzTrZQ5TdjRwzqVfGWF-112" target="aUzTrZQ5TdjRwzqVfGWF-106" edge="1">
                    <mxGeometry relative="1" as="geometry">
                        <Array as="points">
                            <mxPoint x="1845" y="185"/>
                        </Array>
                    </mxGeometry>
                </mxCell>
                <mxCell id="aUzTrZQ5TdjRwzqVfGWF-112" value="project" style="whiteSpace=wrap;html=1;align=center;" parent="1" vertex="1">
                    <mxGeometry x="1800" y="250" width="90" height="30" as="geometry"/>
                </mxCell>
                <mxCell id="aUzTrZQ5TdjRwzqVfGWF-117" value="&lt;u&gt;application_id&lt;/u&gt;" style="whiteSpace=wrap;html=1;align=center;" parent="1" vertex="1">
                    <mxGeometry x="1710" y="330" width="90" height="30" as="geometry"/>
                </mxCell>
                <mxCell id="aUzTrZQ5TdjRwzqVfGWF-118" value="&lt;b&gt;Application&lt;/b&gt;" style="text;html=1;align=center;verticalAlign=middle;resizable=0;points=[];autosize=1;strokeColor=none;fillColor=none;" parent="1" vertex="1">
                    <mxGeometry x="1700" y="300" width="90" height="30" as="geometry"/>
                </mxCell>
                <mxCell id="aUzTrZQ5TdjRwzqVfGWF-120" style="edgeStyle=orthogonalEdgeStyle;rounded=0;orthogonalLoop=1;jettySize=auto;html=1;" parent="1" source="aUzTrZQ5TdjRwzqVfGWF-119" target="aUzTrZQ5TdjRwzqVfGWF-110" edge="1">
                    <mxGeometry relative="1" as="geometry">
                        <Array as="points">
                            <mxPoint x="1845" y="300"/>
                            <mxPoint x="1755" y="300"/>
                        </Array>
                    </mxGeometry>
                </mxCell>
                <mxCell id="aUzTrZQ5TdjRwzqVfGWF-119" value="partition" style="whiteSpace=wrap;html=1;align=center;" parent="1" vertex="1">
                    <mxGeometry x="1800" y="330" width="90" height="30" as="geometry"/>
                </mxCell>
                <mxCell id="aUzTrZQ5TdjRwzqVfGWF-121" value="failure_mode_effect" style="whiteSpace=wrap;html=1;align=center;" parent="1" vertex="1">
                    <mxGeometry x="1890" y="330" width="125" height="30" as="geometry"/>
                </mxCell>
                <mxCell id="aUzTrZQ5TdjRwzqVfGWF-122" value="flight_phase" style="whiteSpace=wrap;html=1;align=center;" parent="1" vertex="1">
                    <mxGeometry x="2015" y="330" width="90" height="30" as="geometry"/>
                </mxCell>
                <mxCell id="aUzTrZQ5TdjRwzqVfGWF-123" value="aircraft_level_effect" style="whiteSpace=wrap;html=1;align=center;" parent="1" vertex="1">
                    <mxGeometry x="2105" y="330" width="115" height="30" as="geometry"/>
                </mxCell>
                <mxCell id="aUzTrZQ5TdjRwzqVfGWF-124" value="mission" style="whiteSpace=wrap;html=1;align=center;" parent="1" vertex="1">
                    <mxGeometry x="2220" y="330" width="90" height="30" as="geometry"/>
                </mxCell>
                <mxCell id="aUzTrZQ5TdjRwzqVfGWF-126" value="category" style="whiteSpace=wrap;html=1;align=center;" parent="1" vertex="1">
                    <mxGeometry x="2310" y="330" width="90" height="30" as="geometry"/>
                </mxCell>
                <mxCell id="aUzTrZQ5TdjRwzqVfGWF-127" value="&lt;u&gt;materal_group&lt;/u&gt;" style="whiteSpace=wrap;html=1;align=center;" parent="1" vertex="1">
                    <mxGeometry x="1710" y="410" width="90" height="30" as="geometry"/>
                </mxCell>
                <mxCell id="aUzTrZQ5TdjRwzqVfGWF-128" value="&lt;b&gt;Subsystem&lt;/b&gt;" style="text;html=1;align=center;verticalAlign=middle;resizable=0;points=[];autosize=1;strokeColor=none;fillColor=none;" parent="1" vertex="1">
                    <mxGeometry x="1700" y="380" width="90" height="30" as="geometry"/>
                </mxCell>
                <mxCell id="aUzTrZQ5TdjRwzqVfGWF-129" value="d" style="whiteSpace=wrap;html=1;align=center;" parent="1" vertex="1">
                    <mxGeometry x="1800" y="410" width="90" height="30" as="geometry"/>
                </mxCell>
            </root>
        </mxGraphModel>
    </diagram>
    <diagram id="U0cc49Uq3lySLNElV35W" name="Page-2">
        <mxGraphModel dx="858" dy="879" grid="1" gridSize="10" guides="1" tooltips="1" connect="1" arrows="1" fold="1" page="1" pageScale="1" pageWidth="850" pageHeight="1100" math="0" shadow="0">
            <root>
                <mxCell id="0"/>
                <mxCell id="1" parent="0"/>
                <mxCell id="eOPl3gM9cugrCk_aVlfm-1" value="&lt;div&gt;Project&lt;/div&gt;" style="html=1;" vertex="1" parent="1">
                    <mxGeometry x="1027" y="160" width="113" height="60" as="geometry"/>
                </mxCell>
                <mxCell id="eOPl3gM9cugrCk_aVlfm-2" value="&lt;u&gt;id&lt;/u&gt;" style="ellipse;whiteSpace=wrap;html=1;" vertex="1" parent="1">
                    <mxGeometry x="995" y="100" width="80" height="50" as="geometry"/>
                </mxCell>
                <mxCell id="eOPl3gM9cugrCk_aVlfm-3" value="" style="endArrow=none;html=1;rounded=0;entryX=1;entryY=1;entryDx=0;entryDy=0;exitX=0.456;exitY=-0.008;exitDx=0;exitDy=0;exitPerimeter=0;" edge="1" parent="1" source="eOPl3gM9cugrCk_aVlfm-1" target="eOPl3gM9cugrCk_aVlfm-2">
                    <mxGeometry width="50" height="50" relative="1" as="geometry">
                        <mxPoint x="1025" y="190" as="sourcePoint"/>
                        <mxPoint x="1145" y="330" as="targetPoint"/>
                    </mxGeometry>
                </mxCell>
                <mxCell id="nfy-dSFiP6GLH4oJT35c-5" style="edgeStyle=orthogonalEdgeStyle;rounded=0;orthogonalLoop=1;jettySize=auto;html=1;exitX=1;exitY=0.5;exitDx=0;exitDy=0;" edge="1" parent="1" source="eOPl3gM9cugrCk_aVlfm-4" target="nfy-dSFiP6GLH4oJT35c-4">
                    <mxGeometry relative="1" as="geometry"/>
                </mxCell>
                <mxCell id="eOPl3gM9cugrCk_aVlfm-4" value="&lt;div&gt;Item&lt;/div&gt;" style="rounded=0;whiteSpace=wrap;html=1;" vertex="1" parent="1">
                    <mxGeometry x="1024.5" y="330" width="118" height="60" as="geometry"/>
                </mxCell>
                <mxCell id="nfy-dSFiP6GLH4oJT35c-6" style="edgeStyle=orthogonalEdgeStyle;rounded=0;orthogonalLoop=1;jettySize=auto;html=1;exitX=1;exitY=0.5;exitDx=0;exitDy=0;" edge="1" parent="1" source="eOPl3gM9cugrCk_aVlfm-5" target="nfy-dSFiP6GLH4oJT35c-4">
                    <mxGeometry relative="1" as="geometry"/>
                </mxCell>
                <mxCell id="eOPl3gM9cugrCk_aVlfm-5" value="&lt;div&gt;Partition&lt;/div&gt;" style="rounded=0;whiteSpace=wrap;html=1;" vertex="1" parent="1">
                    <mxGeometry x="1020" y="480" width="120" height="60" as="geometry"/>
                </mxCell>
                <mxCell id="eOPl3gM9cugrCk_aVlfm-6" value="has" style="rhombus;whiteSpace=wrap;html=1;" vertex="1" parent="1">
                    <mxGeometry x="1054.5" y="250" width="58" height="40" as="geometry"/>
                </mxCell>
                <mxCell id="eOPl3gM9cugrCk_aVlfm-7" value="" style="endArrow=none;html=1;rounded=0;entryX=0.5;entryY=1;entryDx=0;entryDy=0;exitX=0.5;exitY=0;exitDx=0;exitDy=0;" edge="1" parent="1" source="eOPl3gM9cugrCk_aVlfm-6" target="eOPl3gM9cugrCk_aVlfm-1">
                    <mxGeometry relative="1" as="geometry">
                        <mxPoint x="775" y="410" as="sourcePoint"/>
                        <mxPoint x="935" y="410" as="targetPoint"/>
                    </mxGeometry>
                </mxCell>
                <mxCell id="eOPl3gM9cugrCk_aVlfm-8" value="1" style="resizable=0;html=1;align=right;verticalAlign=bottom;" connectable="0" vertex="1" parent="eOPl3gM9cugrCk_aVlfm-7">
                    <mxGeometry x="1" relative="1" as="geometry">
                        <mxPoint x="-2" y="20" as="offset"/>
                    </mxGeometry>
                </mxCell>
                <mxCell id="eOPl3gM9cugrCk_aVlfm-9" value="" style="endArrow=none;html=1;rounded=0;exitX=0.5;exitY=1;exitDx=0;exitDy=0;entryX=0.5;entryY=0;entryDx=0;entryDy=0;" edge="1" parent="1" source="eOPl3gM9cugrCk_aVlfm-6" target="eOPl3gM9cugrCk_aVlfm-4">
                    <mxGeometry relative="1" as="geometry">
                        <mxPoint x="815" y="460" as="sourcePoint"/>
                        <mxPoint x="975" y="460" as="targetPoint"/>
                    </mxGeometry>
                </mxCell>
                <mxCell id="eOPl3gM9cugrCk_aVlfm-10" value="N" style="resizable=0;html=1;align=right;verticalAlign=bottom;" connectable="0" vertex="1" parent="eOPl3gM9cugrCk_aVlfm-9">
                    <mxGeometry x="1" relative="1" as="geometry"/>
                </mxCell>
                <mxCell id="eOPl3gM9cugrCk_aVlfm-11" value="" style="endArrow=none;html=1;rounded=0;" edge="1" parent="1" target="eOPl3gM9cugrCk_aVlfm-4" source="eOPl3gM9cugrCk_aVlfm-26">
                    <mxGeometry relative="1" as="geometry">
                        <mxPoint x="1083.5" y="489.9999999999998" as="sourcePoint"/>
                        <mxPoint x="1097" y="290" as="targetPoint"/>
                    </mxGeometry>
                </mxCell>
                <mxCell id="eOPl3gM9cugrCk_aVlfm-12" value="1" style="resizable=0;html=1;align=right;verticalAlign=bottom;" connectable="0" vertex="1" parent="eOPl3gM9cugrCk_aVlfm-11">
                    <mxGeometry x="1" relative="1" as="geometry">
                        <mxPoint x="-2" y="20" as="offset"/>
                    </mxGeometry>
                </mxCell>
                <mxCell id="eOPl3gM9cugrCk_aVlfm-13" value="" style="endArrow=none;html=1;rounded=0;" edge="1" parent="1" target="eOPl3gM9cugrCk_aVlfm-5" source="eOPl3gM9cugrCk_aVlfm-26">
                    <mxGeometry relative="1" as="geometry">
                        <mxPoint x="1261" y="360" as="sourcePoint"/>
                        <mxPoint x="1408" y="215" as="targetPoint"/>
                    </mxGeometry>
                </mxCell>
                <mxCell id="eOPl3gM9cugrCk_aVlfm-14" value="N" style="resizable=0;html=1;align=right;verticalAlign=bottom;" connectable="0" vertex="1" parent="eOPl3gM9cugrCk_aVlfm-13">
                    <mxGeometry x="1" relative="1" as="geometry"/>
                </mxCell>
                <mxCell id="eOPl3gM9cugrCk_aVlfm-15" value="&lt;u&gt;id&lt;/u&gt;" style="ellipse;whiteSpace=wrap;html=1;" vertex="1" parent="1">
                    <mxGeometry x="925" y="270" width="80" height="50" as="geometry"/>
                </mxCell>
                <mxCell id="eOPl3gM9cugrCk_aVlfm-16" value="" style="endArrow=none;html=1;rounded=0;entryX=1;entryY=1;entryDx=0;entryDy=0;exitX=0;exitY=0.25;exitDx=0;exitDy=0;" edge="1" parent="1" source="eOPl3gM9cugrCk_aVlfm-4" target="eOPl3gM9cugrCk_aVlfm-15">
                    <mxGeometry width="50" height="50" relative="1" as="geometry">
                        <mxPoint x="1042" y="182.5" as="sourcePoint"/>
                        <mxPoint x="983.2842712474501" y="212.67766952965644" as="targetPoint"/>
                    </mxGeometry>
                </mxCell>
                <mxCell id="eOPl3gM9cugrCk_aVlfm-17" value="Metadata" style="rounded=0;whiteSpace=wrap;html=1;" vertex="1" parent="1">
                    <mxGeometry x="1345" y="160" width="118" height="60" as="geometry"/>
                </mxCell>
                <mxCell id="eOPl3gM9cugrCk_aVlfm-18" value="has" style="rhombus;whiteSpace=wrap;html=1;" vertex="1" parent="1">
                    <mxGeometry x="1205" y="170" width="58" height="40" as="geometry"/>
                </mxCell>
                <mxCell id="eOPl3gM9cugrCk_aVlfm-19" value="" style="endArrow=none;html=1;rounded=0;entryX=1;entryY=0.5;entryDx=0;entryDy=0;exitX=0;exitY=0;exitDx=0;exitDy=0;" edge="1" parent="1" target="eOPl3gM9cugrCk_aVlfm-17" source="eOPl3gM9cugrCk_aVlfm-27">
                    <mxGeometry width="50" height="50" relative="1" as="geometry">
                        <mxPoint x="1415" y="250.00000000000023" as="sourcePoint"/>
                        <mxPoint x="973.4511357269164" y="382.57276030191883" as="targetPoint"/>
                    </mxGeometry>
                </mxCell>
                <mxCell id="eOPl3gM9cugrCk_aVlfm-20" value="" style="endArrow=none;html=1;rounded=0;entryX=1;entryY=0.5;entryDx=0;entryDy=0;" edge="1" parent="1" source="eOPl3gM9cugrCk_aVlfm-18" target="eOPl3gM9cugrCk_aVlfm-1">
                    <mxGeometry relative="1" as="geometry">
                        <mxPoint x="1093.5000000000002" y="299.9999999999999" as="sourcePoint"/>
                        <mxPoint x="1093.5000000000002" y="229.9999999999999" as="targetPoint"/>
                    </mxGeometry>
                </mxCell>
                <mxCell id="eOPl3gM9cugrCk_aVlfm-21" value="1" style="resizable=0;html=1;align=right;verticalAlign=bottom;" connectable="0" vertex="1" parent="eOPl3gM9cugrCk_aVlfm-20">
                    <mxGeometry x="1" relative="1" as="geometry">
                        <mxPoint x="-2" y="20" as="offset"/>
                    </mxGeometry>
                </mxCell>
                <mxCell id="eOPl3gM9cugrCk_aVlfm-22" value="" style="endArrow=none;html=1;rounded=0;exitX=1;exitY=0.5;exitDx=0;exitDy=0;" edge="1" parent="1" source="eOPl3gM9cugrCk_aVlfm-18">
                    <mxGeometry relative="1" as="geometry">
                        <mxPoint x="1285" y="190" as="sourcePoint"/>
                        <mxPoint x="1345" y="190" as="targetPoint"/>
                    </mxGeometry>
                </mxCell>
                <mxCell id="eOPl3gM9cugrCk_aVlfm-23" value="1" style="resizable=0;html=1;align=right;verticalAlign=bottom;" connectable="0" vertex="1" parent="eOPl3gM9cugrCk_aVlfm-22">
                    <mxGeometry x="1" relative="1" as="geometry">
                        <mxPoint x="-2" y="20" as="offset"/>
                    </mxGeometry>
                </mxCell>
                <mxCell id="eOPl3gM9cugrCk_aVlfm-24" value="&lt;u&gt;id&lt;/u&gt;" style="ellipse;whiteSpace=wrap;html=1;" vertex="1" parent="1">
                    <mxGeometry x="1485" y="100" width="80" height="50" as="geometry"/>
                </mxCell>
                <mxCell id="eOPl3gM9cugrCk_aVlfm-25" value="" style="endArrow=none;html=1;rounded=0;entryX=0;entryY=1;entryDx=0;entryDy=0;exitX=1;exitY=0.25;exitDx=0;exitDy=0;" edge="1" parent="1" source="eOPl3gM9cugrCk_aVlfm-17" target="eOPl3gM9cugrCk_aVlfm-24">
                    <mxGeometry width="50" height="50" relative="1" as="geometry">
                        <mxPoint x="1425" y="259.9999999999999" as="sourcePoint"/>
                        <mxPoint x="1414" y="229.9999999999999" as="targetPoint"/>
                    </mxGeometry>
                </mxCell>
                <mxCell id="eOPl3gM9cugrCk_aVlfm-26" value="has" style="rhombus;whiteSpace=wrap;html=1;" vertex="1" parent="1">
                    <mxGeometry x="1054.5" y="410" width="58" height="40" as="geometry"/>
                </mxCell>
                <mxCell id="eOPl3gM9cugrCk_aVlfm-27" value="Data?" style="ellipse;shape=doubleEllipse;margin=3;whiteSpace=wrap;html=1;align=center;" vertex="1" parent="1">
                    <mxGeometry x="1490" y="190" width="85" height="50" as="geometry"/>
                </mxCell>
                <mxCell id="eOPl3gM9cugrCk_aVlfm-28" value="&lt;u&gt;id&lt;/u&gt;" style="ellipse;whiteSpace=wrap;html=1;" vertex="1" parent="1">
                    <mxGeometry x="915" y="440" width="80" height="50" as="geometry"/>
                </mxCell>
                <mxCell id="eOPl3gM9cugrCk_aVlfm-29" value="" style="endArrow=none;html=1;rounded=0;" edge="1" parent="1" source="eOPl3gM9cugrCk_aVlfm-28" target="eOPl3gM9cugrCk_aVlfm-5">
                    <mxGeometry width="50" height="50" relative="1" as="geometry">
                        <mxPoint x="1345.5" y="200" as="sourcePoint"/>
                        <mxPoint x="1336" y="425" as="targetPoint"/>
                    </mxGeometry>
                </mxCell>
                <mxCell id="eOPl3gM9cugrCk_aVlfm-30" value="Subsystem" style="rounded=0;whiteSpace=wrap;html=1;" vertex="1" parent="1">
                    <mxGeometry x="1940" y="530" width="118" height="60" as="geometry"/>
                </mxCell>
                <mxCell id="eOPl3gM9cugrCk_aVlfm-31" value="has" style="rhombus;whiteSpace=wrap;html=1;" vertex="1" parent="1">
                    <mxGeometry x="1054.5" y="570" width="58" height="40" as="geometry"/>
                </mxCell>
                <mxCell id="eOPl3gM9cugrCk_aVlfm-36" value="&lt;u&gt;material_group&lt;/u&gt;" style="ellipse;whiteSpace=wrap;html=1;" vertex="1" parent="1">
                    <mxGeometry x="1870" y="455" width="95" height="55" as="geometry"/>
                </mxCell>
                <mxCell id="eOPl3gM9cugrCk_aVlfm-37" value="" style="endArrow=none;html=1;rounded=0;entryX=0.202;entryY=-0.025;entryDx=0;entryDy=0;entryPerimeter=0;exitX=0.5;exitY=1;exitDx=0;exitDy=0;" edge="1" parent="1" source="eOPl3gM9cugrCk_aVlfm-36" target="eOPl3gM9cugrCk_aVlfm-30">
                    <mxGeometry width="50" height="50" relative="1" as="geometry">
                        <mxPoint x="1920" y="500" as="sourcePoint"/>
                        <mxPoint x="1640" y="570" as="targetPoint"/>
                    </mxGeometry>
                </mxCell>
                <mxCell id="eOPl3gM9cugrCk_aVlfm-38" value="effect" style="ellipse;whiteSpace=wrap;html=1;" vertex="1" parent="1">
                    <mxGeometry x="2000" y="450" width="80" height="50" as="geometry"/>
                </mxCell>
                <mxCell id="eOPl3gM9cugrCk_aVlfm-39" value="" style="endArrow=none;html=1;rounded=0;entryX=0.691;entryY=0.012;entryDx=0;entryDy=0;entryPerimeter=0;exitX=0.388;exitY=0.984;exitDx=0;exitDy=0;exitPerimeter=0;" edge="1" parent="1" source="eOPl3gM9cugrCk_aVlfm-38" target="eOPl3gM9cugrCk_aVlfm-30">
                    <mxGeometry width="50" height="50" relative="1" as="geometry">
                        <mxPoint x="1920" y="515" as="sourcePoint"/>
                        <mxPoint x="1973.8360000000002" y="538.5" as="targetPoint"/>
                    </mxGeometry>
                </mxCell>
                <mxCell id="eOPl3gM9cugrCk_aVlfm-40" value="failure_mode_effect" style="ellipse;whiteSpace=wrap;html=1;" vertex="1" parent="1">
                    <mxGeometry x="1690" y="160" width="110" height="60" as="geometry"/>
                </mxCell>
                <mxCell id="eOPl3gM9cugrCk_aVlfm-42" value="aircraft_level_effect" style="ellipse;whiteSpace=wrap;html=1;" vertex="1" parent="1">
                    <mxGeometry x="1730" y="480" width="110" height="60" as="geometry"/>
                </mxCell>
                <mxCell id="eOPl3gM9cugrCk_aVlfm-44" value="criticality" style="ellipse;whiteSpace=wrap;html=1;" vertex="1" parent="1">
                    <mxGeometry x="1770" y="330" width="90" height="50" as="geometry"/>
                </mxCell>
                <mxCell id="eOPl3gM9cugrCk_aVlfm-46" value="flight_phase" style="ellipse;whiteSpace=wrap;html=1;" vertex="1" parent="1">
                    <mxGeometry x="1730" y="220" width="90" height="50" as="geometry"/>
                </mxCell>
                <mxCell id="eOPl3gM9cugrCk_aVlfm-48" value="VariantSpecific" style="rounded=0;whiteSpace=wrap;html=1;" vertex="1" parent="1">
                    <mxGeometry x="1940" y="690" width="118" height="60" as="geometry"/>
                </mxCell>
                <mxCell id="eOPl3gM9cugrCk_aVlfm-49" value="is" style="rhombus;whiteSpace=wrap;html=1;" vertex="1" parent="1">
                    <mxGeometry x="1970" y="620" width="58" height="40" as="geometry"/>
                </mxCell>
                <mxCell id="eOPl3gM9cugrCk_aVlfm-50" value="" style="endArrow=none;html=1;rounded=0;entryX=0.5;entryY=1;entryDx=0;entryDy=0;exitX=0.5;exitY=0;exitDx=0;exitDy=0;" edge="1" parent="1" source="eOPl3gM9cugrCk_aVlfm-49" target="eOPl3gM9cugrCk_aVlfm-30">
                    <mxGeometry relative="1" as="geometry">
                        <mxPoint x="1820" y="570" as="sourcePoint"/>
                        <mxPoint x="1759.5" y="570" as="targetPoint"/>
                    </mxGeometry>
                </mxCell>
                <mxCell id="eOPl3gM9cugrCk_aVlfm-51" value="1" style="resizable=0;html=1;align=right;verticalAlign=bottom;" connectable="0" vertex="1" parent="eOPl3gM9cugrCk_aVlfm-50">
                    <mxGeometry x="1" relative="1" as="geometry">
                        <mxPoint x="-2" y="20" as="offset"/>
                    </mxGeometry>
                </mxCell>
                <mxCell id="eOPl3gM9cugrCk_aVlfm-52" value="" style="endArrow=none;html=1;rounded=0;entryX=0.5;entryY=0;entryDx=0;entryDy=0;exitX=0.5;exitY=1;exitDx=0;exitDy=0;" edge="1" parent="1" source="eOPl3gM9cugrCk_aVlfm-49" target="eOPl3gM9cugrCk_aVlfm-48">
                    <mxGeometry relative="1" as="geometry">
                        <mxPoint x="1830" y="580" as="sourcePoint"/>
                        <mxPoint x="1769.5" y="580" as="targetPoint"/>
                    </mxGeometry>
                </mxCell>
                <mxCell id="eOPl3gM9cugrCk_aVlfm-53" value="1" style="resizable=0;html=1;align=right;verticalAlign=bottom;" connectable="0" vertex="1" parent="eOPl3gM9cugrCk_aVlfm-52">
                    <mxGeometry x="1" relative="1" as="geometry">
                        <mxPoint x="-2" y="20" as="offset"/>
                    </mxGeometry>
                </mxCell>
                <mxCell id="eOPl3gM9cugrCk_aVlfm-54" value="variant" style="ellipse;whiteSpace=wrap;html=1;" vertex="1" parent="1">
                    <mxGeometry x="2075" y="600" width="80" height="50" as="geometry"/>
                </mxCell>
                <mxCell id="eOPl3gM9cugrCk_aVlfm-55" value="" style="endArrow=none;html=1;rounded=0;exitX=0;exitY=0.4;exitDx=0;exitDy=0;exitPerimeter=0;entryX=1;entryY=0.5;entryDx=0;entryDy=0;" edge="1" parent="1" source="eOPl3gM9cugrCk_aVlfm-54" target="eOPl3gM9cugrCk_aVlfm-49">
                    <mxGeometry width="50" height="50" relative="1" as="geometry">
                        <mxPoint x="2041.04" y="509.20000000000005" as="sourcePoint"/>
                        <mxPoint x="2030" y="660" as="targetPoint"/>
                    </mxGeometry>
                </mxCell>
                <mxCell id="eOPl3gM9cugrCk_aVlfm-56" value="failure_detection" style="ellipse;whiteSpace=wrap;html=1;" vertex="1" parent="1">
                    <mxGeometry x="2090" y="695" width="100" height="50" as="geometry"/>
                </mxCell>
                <mxCell id="eOPl3gM9cugrCk_aVlfm-57" value="" style="endArrow=none;html=1;rounded=0;exitX=0;exitY=0.4;exitDx=0;exitDy=0;exitPerimeter=0;entryX=0.999;entryY=0.608;entryDx=0;entryDy=0;entryPerimeter=0;" edge="1" parent="1" source="eOPl3gM9cugrCk_aVlfm-56" target="eOPl3gM9cugrCk_aVlfm-48">
                    <mxGeometry width="50" height="50" relative="1" as="geometry">
                        <mxPoint x="2110" y="660.0000000000002" as="sourcePoint"/>
                        <mxPoint x="2038" y="669.9999999999998" as="targetPoint"/>
                    </mxGeometry>
                </mxCell>
                <mxCell id="eOPl3gM9cugrCk_aVlfm-58" value="mission" style="ellipse;whiteSpace=wrap;html=1;" vertex="1" parent="1">
                    <mxGeometry x="1740" y="400" width="90" height="50" as="geometry"/>
                </mxCell>
                <mxCell id="eOPl3gM9cugrCk_aVlfm-60" value="category" style="ellipse;whiteSpace=wrap;html=1;" vertex="1" parent="1">
                    <mxGeometry x="1730" y="270" width="90" height="50" as="geometry"/>
                </mxCell>
                <mxCell id="eOPl3gM9cugrCk_aVlfm-62" value="I dont know" style="text;html=1;align=center;verticalAlign=middle;resizable=0;points=[];autosize=1;strokeColor=none;fillColor=none;" vertex="1" parent="1">
                    <mxGeometry x="1354" y="120" width="80" height="30" as="geometry"/>
                </mxCell>
                <mxCell id="eOPl3gM9cugrCk_aVlfm-63" value="&lt;h1&gt;EER Diagram&lt;/h1&gt;" style="text;html=1;strokeColor=none;fillColor=none;spacing=5;spacingTop=-20;whiteSpace=wrap;overflow=hidden;rounded=0;" vertex="1" parent="1">
                    <mxGeometry x="1135" y="70" width="190" height="60" as="geometry"/>
                </mxCell>
                <mxCell id="eOPl3gM9cugrCk_aVlfm-64" value="&lt;h1&gt;Relationship Diagram&lt;/h1&gt;" style="text;html=1;strokeColor=none;fillColor=none;spacing=5;spacingTop=-20;whiteSpace=wrap;overflow=hidden;rounded=0;" vertex="1" parent="1">
                    <mxGeometry x="1715" y="70" width="260" height="60" as="geometry"/>
                </mxCell>
                <mxCell id="eOPl3gM9cugrCk_aVlfm-65" value="comment" style="ellipse;whiteSpace=wrap;html=1;" vertex="1" parent="1">
                    <mxGeometry x="2110" y="480" width="80" height="50" as="geometry"/>
                </mxCell>
                <mxCell id="eOPl3gM9cugrCk_aVlfm-66" value="" style="endArrow=none;html=1;rounded=0;entryX=1;entryY=0.25;entryDx=0;entryDy=0;exitX=0.05;exitY=0.78;exitDx=0;exitDy=0;exitPerimeter=0;" edge="1" parent="1" source="eOPl3gM9cugrCk_aVlfm-65" target="eOPl3gM9cugrCk_aVlfm-30">
                    <mxGeometry width="50" height="50" relative="1" as="geometry">
                        <mxPoint x="2041.04" y="509.20000000000005" as="sourcePoint"/>
                        <mxPoint x="2031.538" y="540.72" as="targetPoint"/>
                    </mxGeometry>
                </mxCell>
                <mxCell id="nfy-dSFiP6GLH4oJT35c-7" style="edgeStyle=orthogonalEdgeStyle;rounded=0;orthogonalLoop=1;jettySize=auto;html=1;exitX=1;exitY=0.5;exitDx=0;exitDy=0;" edge="1" parent="1" source="eOPl3gM9cugrCk_aVlfm-86" target="nfy-dSFiP6GLH4oJT35c-4">
                    <mxGeometry relative="1" as="geometry"/>
                </mxCell>
                <mxCell id="eOPl3gM9cugrCk_aVlfm-86" value="Application" style="rounded=0;whiteSpace=wrap;html=1;" vertex="1" parent="1">
                    <mxGeometry x="1023.5" y="660" width="120" height="60" as="geometry"/>
                </mxCell>
                <mxCell id="eOPl3gM9cugrCk_aVlfm-91" value="" style="endArrow=none;html=1;rounded=0;entryX=0.5;entryY=0;entryDx=0;entryDy=0;exitX=0.5;exitY=1;exitDx=0;exitDy=0;" edge="1" parent="1" source="eOPl3gM9cugrCk_aVlfm-31" target="eOPl3gM9cugrCk_aVlfm-86">
                    <mxGeometry relative="1" as="geometry">
                        <mxPoint x="1390" y="490" as="sourcePoint"/>
                        <mxPoint x="1550" y="490" as="targetPoint"/>
                    </mxGeometry>
                </mxCell>
                <mxCell id="eOPl3gM9cugrCk_aVlfm-92" value="N" style="resizable=0;html=1;align=right;verticalAlign=bottom;" connectable="0" vertex="1" parent="eOPl3gM9cugrCk_aVlfm-91">
                    <mxGeometry x="1" relative="1" as="geometry"/>
                </mxCell>
                <mxCell id="eOPl3gM9cugrCk_aVlfm-94" value="" style="endArrow=none;html=1;rounded=0;entryX=0.5;entryY=1;entryDx=0;entryDy=0;exitX=0.5;exitY=0;exitDx=0;exitDy=0;" edge="1" parent="1" source="eOPl3gM9cugrCk_aVlfm-31" target="eOPl3gM9cugrCk_aVlfm-5">
                    <mxGeometry relative="1" as="geometry">
                        <mxPoint x="1330" y="430" as="sourcePoint"/>
                        <mxPoint x="1490" y="430" as="targetPoint"/>
                    </mxGeometry>
                </mxCell>
                <mxCell id="eOPl3gM9cugrCk_aVlfm-95" value="1" style="resizable=0;html=1;align=right;verticalAlign=bottom;" connectable="0" vertex="1" parent="eOPl3gM9cugrCk_aVlfm-94">
                    <mxGeometry x="1" relative="1" as="geometry"/>
                </mxCell>
                <mxCell id="nfy-dSFiP6GLH4oJT35c-3" value="&lt;u&gt;id&lt;/u&gt;" style="ellipse;whiteSpace=wrap;html=1;" vertex="1" parent="1">
                    <mxGeometry x="925" y="610" width="80" height="50" as="geometry"/>
                </mxCell>
                <mxCell id="nfy-dSFiP6GLH4oJT35c-4" value="Falure Event" style="rounded=0;whiteSpace=wrap;html=1;" vertex="1" parent="1">
                    <mxGeometry x="1360" y="475" width="120" height="60" as="geometry"/>
                </mxCell>
            </root>
        </mxGraphModel>
    </diagram>
    <diagram id="vgIU0uyh5tQVfs5H1wZh" name="Page-3">
        <mxGraphModel dx="730" dy="1013" grid="1" gridSize="10" guides="1" tooltips="1" connect="1" arrows="1" fold="1" page="1" pageScale="1" pageWidth="850" pageHeight="1100" math="0" shadow="0">
            <root>
                <mxCell id="0"/>
                <mxCell id="1" parent="0"/>
                <mxCell id="vciztOI1bxGepNl09CBd-1" value="&lt;div&gt;Project&lt;/div&gt;" style="html=1;" parent="1" vertex="1">
                    <mxGeometry x="1027" y="160" width="113" height="60" as="geometry"/>
                </mxCell>
                <mxCell id="vciztOI1bxGepNl09CBd-2" value="&lt;u&gt;id&lt;/u&gt;" style="ellipse;whiteSpace=wrap;html=1;" parent="1" vertex="1">
                    <mxGeometry x="995" y="100" width="80" height="50" as="geometry"/>
                </mxCell>
                <mxCell id="vciztOI1bxGepNl09CBd-3" value="" style="endArrow=none;html=1;rounded=0;entryX=1;entryY=1;entryDx=0;entryDy=0;exitX=0.456;exitY=-0.008;exitDx=0;exitDy=0;exitPerimeter=0;" parent="1" source="vciztOI1bxGepNl09CBd-1" target="vciztOI1bxGepNl09CBd-2" edge="1">
                    <mxGeometry width="50" height="50" relative="1" as="geometry">
                        <mxPoint x="1025" y="190" as="sourcePoint"/>
                        <mxPoint x="1145" y="330" as="targetPoint"/>
                    </mxGeometry>
                </mxCell>
                <mxCell id="vciztOI1bxGepNl09CBd-5" value="&lt;div&gt;Node&lt;br&gt;&lt;/div&gt;" style="rounded=0;whiteSpace=wrap;html=1;" parent="1" vertex="1">
                    <mxGeometry x="1022" y="395" width="118" height="60" as="geometry"/>
                </mxCell>
                <mxCell id="vciztOI1bxGepNl09CBd-7" value="&lt;div&gt;Partition&lt;/div&gt;" style="rounded=0;whiteSpace=wrap;html=1;" parent="1" vertex="1">
                    <mxGeometry x="1023" y="720" width="120" height="60" as="geometry"/>
                </mxCell>
                <mxCell id="vciztOI1bxGepNl09CBd-8" value="has" style="rhombus;whiteSpace=wrap;html=1;" parent="1" vertex="1">
                    <mxGeometry x="1054.5" y="250" width="58" height="40" as="geometry"/>
                </mxCell>
                <mxCell id="vciztOI1bxGepNl09CBd-9" value="" style="endArrow=none;html=1;rounded=0;entryX=0.5;entryY=1;entryDx=0;entryDy=0;exitX=0.5;exitY=0;exitDx=0;exitDy=0;" parent="1" source="vciztOI1bxGepNl09CBd-8" target="vciztOI1bxGepNl09CBd-1" edge="1">
                    <mxGeometry relative="1" as="geometry">
                        <mxPoint x="775" y="410" as="sourcePoint"/>
                        <mxPoint x="935" y="410" as="targetPoint"/>
                    </mxGeometry>
                </mxCell>
                <mxCell id="vciztOI1bxGepNl09CBd-10" value="1" style="resizable=0;html=1;align=right;verticalAlign=bottom;" parent="vciztOI1bxGepNl09CBd-9" connectable="0" vertex="1">
                    <mxGeometry x="1" relative="1" as="geometry">
                        <mxPoint x="-2" y="20" as="offset"/>
                    </mxGeometry>
                </mxCell>
                <mxCell id="vciztOI1bxGepNl09CBd-11" value="" style="endArrow=none;html=1;rounded=0;exitX=0.5;exitY=1;exitDx=0;exitDy=0;entryX=0.5;entryY=0;entryDx=0;entryDy=0;" parent="1" source="vciztOI1bxGepNl09CBd-8" target="vciztOI1bxGepNl09CBd-5" edge="1">
                    <mxGeometry relative="1" as="geometry">
                        <mxPoint x="1086.5" y="530" as="sourcePoint"/>
                        <mxPoint x="978" y="700" as="targetPoint"/>
                    </mxGeometry>
                </mxCell>
                <mxCell id="vciztOI1bxGepNl09CBd-12" value="N" style="resizable=0;html=1;align=right;verticalAlign=bottom;" parent="vciztOI1bxGepNl09CBd-11" connectable="0" vertex="1">
                    <mxGeometry x="1" relative="1" as="geometry"/>
                </mxCell>
                <mxCell id="vciztOI1bxGepNl09CBd-13" value="" style="endArrow=none;html=1;rounded=0;" parent="1" source="vciztOI1bxGepNl09CBd-28" target="vciztOI1bxGepNl09CBd-5" edge="1">
                    <mxGeometry relative="1" as="geometry">
                        <mxPoint x="1086.5" y="729.9999999999998" as="sourcePoint"/>
                        <mxPoint x="1100" y="530" as="targetPoint"/>
                    </mxGeometry>
                </mxCell>
                <mxCell id="vciztOI1bxGepNl09CBd-14" value="1" style="resizable=0;html=1;align=right;verticalAlign=bottom;" parent="vciztOI1bxGepNl09CBd-13" connectable="0" vertex="1">
                    <mxGeometry x="1" relative="1" as="geometry">
                        <mxPoint x="-2" y="20" as="offset"/>
                    </mxGeometry>
                </mxCell>
                <mxCell id="vciztOI1bxGepNl09CBd-15" value="" style="endArrow=none;html=1;rounded=0;" parent="1" source="vciztOI1bxGepNl09CBd-28" target="vciztOI1bxGepNl09CBd-7" edge="1">
                    <mxGeometry relative="1" as="geometry">
                        <mxPoint x="1264" y="600" as="sourcePoint"/>
                        <mxPoint x="1411" y="455" as="targetPoint"/>
                    </mxGeometry>
                </mxCell>
                <mxCell id="vciztOI1bxGepNl09CBd-16" value="N" style="resizable=0;html=1;align=right;verticalAlign=bottom;" parent="vciztOI1bxGepNl09CBd-15" connectable="0" vertex="1">
                    <mxGeometry x="1" relative="1" as="geometry"/>
                </mxCell>
                <mxCell id="vciztOI1bxGepNl09CBd-17" value="&lt;u&gt;id&lt;/u&gt;" style="ellipse;whiteSpace=wrap;html=1;" parent="1" vertex="1">
                    <mxGeometry x="890" y="360" width="80" height="50" as="geometry"/>
                </mxCell>
                <mxCell id="vciztOI1bxGepNl09CBd-18" value="" style="endArrow=none;html=1;rounded=0;entryX=1;entryY=1;entryDx=0;entryDy=0;exitX=0;exitY=0.25;exitDx=0;exitDy=0;" parent="1" source="vciztOI1bxGepNl09CBd-5" target="vciztOI1bxGepNl09CBd-17" edge="1">
                    <mxGeometry width="50" height="50" relative="1" as="geometry">
                        <mxPoint x="1045" y="422.5" as="sourcePoint"/>
                        <mxPoint x="986.2842712474501" y="452.67766952965644" as="targetPoint"/>
                    </mxGeometry>
                </mxCell>
                <mxCell id="vciztOI1bxGepNl09CBd-28" value="has" style="rhombus;whiteSpace=wrap;html=1;" parent="1" vertex="1">
                    <mxGeometry x="1054.5" y="570" width="58" height="40" as="geometry"/>
                </mxCell>
                <mxCell id="vciztOI1bxGepNl09CBd-30" value="&lt;u&gt;id&lt;/u&gt;" style="ellipse;whiteSpace=wrap;html=1;" parent="1" vertex="1">
                    <mxGeometry x="918" y="680" width="80" height="50" as="geometry"/>
                </mxCell>
                <mxCell id="vciztOI1bxGepNl09CBd-31" value="" style="endArrow=none;html=1;rounded=0;" parent="1" source="vciztOI1bxGepNl09CBd-30" target="vciztOI1bxGepNl09CBd-7" edge="1">
                    <mxGeometry width="50" height="50" relative="1" as="geometry">
                        <mxPoint x="1348.5" y="440" as="sourcePoint"/>
                        <mxPoint x="1339" y="665" as="targetPoint"/>
                    </mxGeometry>
                </mxCell>
                <mxCell id="vciztOI1bxGepNl09CBd-39" value="aircraft_level_effect" style="ellipse;whiteSpace=wrap;html=1;" parent="1" vertex="1">
                    <mxGeometry x="1440" y="815" width="110" height="60" as="geometry"/>
                </mxCell>
                <mxCell id="vciztOI1bxGepNl09CBd-40" value="criticality" style="ellipse;whiteSpace=wrap;html=1;" parent="1" vertex="1">
                    <mxGeometry x="1130" y="660" width="90" height="50" as="geometry"/>
                </mxCell>
                <mxCell id="vciztOI1bxGepNl09CBd-41" value="flight_phase" style="ellipse;whiteSpace=wrap;html=1;" parent="1" vertex="1">
                    <mxGeometry x="1205" y="300" width="90" height="50" as="geometry"/>
                </mxCell>
                <mxCell id="vciztOI1bxGepNl09CBd-52" value="mission" style="ellipse;whiteSpace=wrap;html=1;" parent="1" vertex="1">
                    <mxGeometry x="1143" y="800" width="90" height="50" as="geometry"/>
                </mxCell>
                <mxCell id="vciztOI1bxGepNl09CBd-53" value="category" style="ellipse;whiteSpace=wrap;html=1;" parent="1" vertex="1">
                    <mxGeometry x="1220" y="620" width="90" height="50" as="geometry"/>
                </mxCell>
                <mxCell id="vciztOI1bxGepNl09CBd-55" value="&lt;h1&gt;EER Diagram&lt;/h1&gt;" style="text;html=1;strokeColor=none;fillColor=none;spacing=5;spacingTop=-20;whiteSpace=wrap;overflow=hidden;rounded=0;" parent="1" vertex="1">
                    <mxGeometry x="1135" y="70" width="190" height="60" as="geometry"/>
                </mxCell>
                <mxCell id="vciztOI1bxGepNl09CBd-56" value="&lt;h1&gt;Relationship Diagram&lt;/h1&gt;" style="text;html=1;strokeColor=none;fillColor=none;spacing=5;spacingTop=-20;whiteSpace=wrap;overflow=hidden;rounded=0;" parent="1" vertex="1">
                    <mxGeometry x="1770" y="70" width="260" height="60" as="geometry"/>
                </mxCell>
                <mxCell id="vciztOI1bxGepNl09CBd-65" value="&lt;u&gt;id&lt;/u&gt;" style="ellipse;whiteSpace=wrap;html=1;" parent="1" vertex="1">
                    <mxGeometry x="1670" y="640" width="80" height="50" as="geometry"/>
                </mxCell>
                <mxCell id="vciztOI1bxGepNl09CBd-67" value="Application" style="rounded=0;whiteSpace=wrap;html=1;" parent="1" vertex="1">
                    <mxGeometry x="1595" y="720" width="120" height="60" as="geometry"/>
                </mxCell>
                <mxCell id="vciztOI1bxGepNl09CBd-72" value="" style="endArrow=none;html=1;rounded=0;exitX=0.393;exitY=1.034;exitDx=0;exitDy=0;entryX=0.75;entryY=0;entryDx=0;entryDy=0;exitPerimeter=0;" parent="1" source="vciztOI1bxGepNl09CBd-65" target="vciztOI1bxGepNl09CBd-67" edge="1">
                    <mxGeometry width="50" height="50" relative="1" as="geometry">
                        <mxPoint x="1002.8749049998385" y="727.2433177127095" as="sourcePoint"/>
                        <mxPoint x="1020.48" y="905.7" as="targetPoint"/>
                    </mxGeometry>
                </mxCell>
                <mxCell id="vciztOI1bxGepNl09CBd-74" value="" style="endArrow=none;html=1;rounded=0;entryX=0.265;entryY=-0.027;entryDx=0;entryDy=0;exitX=0.75;exitY=1;exitDx=0;exitDy=0;entryPerimeter=0;" parent="1" source="vciztOI1bxGepNl09CBd-79" target="vciztOI1bxGepNl09CBd-130" edge="1">
                    <mxGeometry width="50" height="50" relative="1" as="geometry">
                        <mxPoint x="1243" y="700" as="sourcePoint"/>
                        <mxPoint x="1441.7157287525379" y="722.6776695296637" as="targetPoint"/>
                    </mxGeometry>
                </mxCell>
                <mxCell id="vciztOI1bxGepNl09CBd-75" value="&lt;div&gt;subsystem_effect&lt;/div&gt;" style="ellipse;whiteSpace=wrap;html=1;" parent="1" vertex="1">
                    <mxGeometry x="1231" y="830" width="110" height="50" as="geometry"/>
                </mxCell>
                <mxCell id="vciztOI1bxGepNl09CBd-77" value="" style="endArrow=none;html=1;rounded=0;exitX=0.551;exitY=-0.023;exitDx=0;exitDy=0;entryX=0.5;entryY=1;entryDx=0;entryDy=0;exitPerimeter=0;" parent="1" source="vciztOI1bxGepNl09CBd-75" target="vciztOI1bxGepNl09CBd-79" edge="1">
                    <mxGeometry width="50" height="50" relative="1" as="geometry">
                        <mxPoint x="1173.0000000000002" y="860" as="sourcePoint"/>
                        <mxPoint x="1239.5" y="770.0000000000001" as="targetPoint"/>
                    </mxGeometry>
                </mxCell>
                <mxCell id="vciztOI1bxGepNl09CBd-78" value="" style="endArrow=none;html=1;rounded=0;exitX=0.3;exitY=0.067;exitDx=0;exitDy=0;entryX=0.803;entryY=0.993;entryDx=0;entryDy=0;exitPerimeter=0;entryPerimeter=0;" parent="1" source="vciztOI1bxGepNl09CBd-39" target="vciztOI1bxGepNl09CBd-79" edge="1">
                    <mxGeometry width="50" height="50" relative="1" as="geometry">
                        <mxPoint x="1203.6100000000001" y="818.8500000000001" as="sourcePoint"/>
                        <mxPoint x="1238.126" y="774.3599999999999" as="targetPoint"/>
                    </mxGeometry>
                </mxCell>
                <mxCell id="vciztOI1bxGepNl09CBd-79" value="Partition Failure" style="rounded=0;whiteSpace=wrap;html=1;" parent="1" vertex="1">
                    <mxGeometry x="1266" y="720" width="120" height="60" as="geometry"/>
                </mxCell>
                <mxCell id="vciztOI1bxGepNl09CBd-81" value="" style="endArrow=none;html=1;rounded=0;exitX=0;exitY=0;exitDx=0;exitDy=0;" parent="1" source="vciztOI1bxGepNl09CBd-79" target="vciztOI1bxGepNl09CBd-40" edge="1">
                    <mxGeometry width="50" height="50" relative="1" as="geometry">
                        <mxPoint x="1383.28" y="730.54" as="sourcePoint"/>
                        <mxPoint x="1404.28" y="681" as="targetPoint"/>
                    </mxGeometry>
                </mxCell>
                <mxCell id="vciztOI1bxGepNl09CBd-91" value="has" style="rhombus;whiteSpace=wrap;html=1;" parent="1" vertex="1">
                    <mxGeometry x="1173" y="730" width="58" height="40" as="geometry"/>
                </mxCell>
                <mxCell id="vciztOI1bxGepNl09CBd-92" value="" style="endArrow=none;html=1;rounded=0;entryX=1;entryY=0.5;entryDx=0;entryDy=0;exitX=0;exitY=0.5;exitDx=0;exitDy=0;" parent="1" source="vciztOI1bxGepNl09CBd-91" target="vciztOI1bxGepNl09CBd-7" edge="1">
                    <mxGeometry relative="1" as="geometry">
                        <mxPoint x="1096.5" y="660" as="sourcePoint"/>
                        <mxPoint x="1096.5" y="640" as="targetPoint"/>
                    </mxGeometry>
                </mxCell>
                <mxCell id="vciztOI1bxGepNl09CBd-93" value="1" style="resizable=0;html=1;align=right;verticalAlign=bottom;" parent="vciztOI1bxGepNl09CBd-92" connectable="0" vertex="1">
                    <mxGeometry x="1" relative="1" as="geometry">
                        <mxPoint x="-2" y="20" as="offset"/>
                    </mxGeometry>
                </mxCell>
                <mxCell id="vciztOI1bxGepNl09CBd-94" value="" style="endArrow=none;html=1;rounded=0;entryX=0;entryY=0.5;entryDx=0;entryDy=0;" parent="1" target="vciztOI1bxGepNl09CBd-79" edge="1">
                    <mxGeometry relative="1" as="geometry">
                        <mxPoint x="1233" y="750" as="sourcePoint"/>
                        <mxPoint x="1094.3125" y="730" as="targetPoint"/>
                    </mxGeometry>
                </mxCell>
                <mxCell id="vciztOI1bxGepNl09CBd-95" value="N" style="resizable=0;html=1;align=right;verticalAlign=bottom;" parent="vciztOI1bxGepNl09CBd-94" connectable="0" vertex="1">
                    <mxGeometry x="1" relative="1" as="geometry"/>
                </mxCell>
                <mxCell id="vciztOI1bxGepNl09CBd-68" value="in" style="rhombus;whiteSpace=wrap;html=1;" parent="1" vertex="1">
                    <mxGeometry x="1485" y="730" width="58" height="40" as="geometry"/>
                </mxCell>
                <mxCell id="vciztOI1bxGepNl09CBd-100" value="" style="endArrow=none;html=1;rounded=0;entryX=1;entryY=0.5;entryDx=0;entryDy=0;exitX=0;exitY=0.5;exitDx=0;exitDy=0;" parent="1" source="vciztOI1bxGepNl09CBd-68" target="vciztOI1bxGepNl09CBd-79" edge="1">
                    <mxGeometry relative="1" as="geometry">
                        <mxPoint x="1243" y="760" as="sourcePoint"/>
                        <mxPoint x="1276" y="760" as="targetPoint"/>
                    </mxGeometry>
                </mxCell>
                <mxCell id="vciztOI1bxGepNl09CBd-101" value="N" style="resizable=0;html=1;align=right;verticalAlign=bottom;" parent="vciztOI1bxGepNl09CBd-100" connectable="0" vertex="1">
                    <mxGeometry x="1" relative="1" as="geometry"/>
                </mxCell>
                <mxCell id="vciztOI1bxGepNl09CBd-102" value="" style="endArrow=none;html=1;rounded=0;entryX=0;entryY=0.5;entryDx=0;entryDy=0;exitX=1;exitY=0.5;exitDx=0;exitDy=0;" parent="1" source="vciztOI1bxGepNl09CBd-68" target="vciztOI1bxGepNl09CBd-67" edge="1">
                    <mxGeometry relative="1" as="geometry">
                        <mxPoint x="1423" y="760" as="sourcePoint"/>
                        <mxPoint x="1396" y="760" as="targetPoint"/>
                    </mxGeometry>
                </mxCell>
                <mxCell id="vciztOI1bxGepNl09CBd-103" value="N" style="resizable=0;html=1;align=right;verticalAlign=bottom;" parent="vciztOI1bxGepNl09CBd-102" connectable="0" vertex="1">
                    <mxGeometry x="1" relative="1" as="geometry"/>
                </mxCell>
                <mxCell id="vciztOI1bxGepNl09CBd-104" value="" style="endArrow=none;html=1;rounded=0;entryX=0.142;entryY=1;entryDx=0;entryDy=0;entryPerimeter=0;" parent="1" source="vciztOI1bxGepNl09CBd-52" target="vciztOI1bxGepNl09CBd-79" edge="1">
                    <mxGeometry width="50" height="50" relative="1" as="geometry">
                        <mxPoint x="1338.6100000000001" y="848.8500000000001" as="sourcePoint"/>
                        <mxPoint x="1336" y="790" as="targetPoint"/>
                    </mxGeometry>
                </mxCell>
                <mxCell id="vciztOI1bxGepNl09CBd-105" value="" style="endArrow=none;html=1;rounded=0;entryX=0.676;entryY=0.957;entryDx=0;entryDy=0;entryPerimeter=0;" parent="1" source="vciztOI1bxGepNl09CBd-79" target="vciztOI1bxGepNl09CBd-53" edge="1">
                    <mxGeometry width="50" height="50" relative="1" as="geometry">
                        <mxPoint x="1256.484901511623" y="823.6746296618592" as="sourcePoint"/>
                        <mxPoint x="1293.04" y="790" as="targetPoint"/>
                    </mxGeometry>
                </mxCell>
                <mxCell id="vciztOI1bxGepNl09CBd-106" value="preflight_failure_detection" style="ellipse;whiteSpace=wrap;html=1;" parent="1" vertex="1">
                    <mxGeometry x="1290" y="900" width="140" height="60" as="geometry"/>
                </mxCell>
                <mxCell id="vciztOI1bxGepNl09CBd-108" value="" style="endArrow=none;html=1;rounded=0;exitX=0.5;exitY=0;exitDx=0;exitDy=0;entryX=0.673;entryY=0.995;entryDx=0;entryDy=0;entryPerimeter=0;" parent="1" source="vciztOI1bxGepNl09CBd-106" target="vciztOI1bxGepNl09CBd-79" edge="1">
                    <mxGeometry width="50" height="50" relative="1" as="geometry">
                        <mxPoint x="1338.6100000000001" y="848.8499999999999" as="sourcePoint"/>
                        <mxPoint x="1336" y="790" as="targetPoint"/>
                    </mxGeometry>
                </mxCell>
                <mxCell id="vciztOI1bxGepNl09CBd-109" value="&lt;u&gt;id&lt;/u&gt;" style="ellipse;whiteSpace=wrap;html=1;" parent="1" vertex="1">
                    <mxGeometry x="1405" y="660" width="80" height="50" as="geometry"/>
                </mxCell>
                <mxCell id="vciztOI1bxGepNl09CBd-110" value="" style="endArrow=none;html=1;rounded=0;entryX=0;entryY=1;entryDx=0;entryDy=0;exitX=0.867;exitY=0;exitDx=0;exitDy=0;exitPerimeter=0;" parent="1" source="vciztOI1bxGepNl09CBd-79" target="vciztOI1bxGepNl09CBd-109" edge="1">
                    <mxGeometry width="50" height="50" relative="1" as="geometry">
                        <mxPoint x="1321.5999999999997" y="731.56" as="sourcePoint"/>
                        <mxPoint x="1342.2699999999998" y="670.8999999999999" as="targetPoint"/>
                    </mxGeometry>
                </mxCell>
                <mxCell id="vciztOI1bxGepNl09CBd-112" value="Node Failure" style="rounded=0;whiteSpace=wrap;html=1;" parent="1" vertex="1">
                    <mxGeometry x="1268" y="395" width="118" height="60" as="geometry"/>
                </mxCell>
                <mxCell id="vciztOI1bxGepNl09CBd-113" value="has" style="rhombus;whiteSpace=wrap;html=1;" parent="1" vertex="1">
                    <mxGeometry x="1180" y="405" width="58" height="40" as="geometry"/>
                </mxCell>
                <mxCell id="vciztOI1bxGepNl09CBd-115" value="" style="endArrow=none;html=1;rounded=0;entryX=1;entryY=0.5;entryDx=0;entryDy=0;exitX=0;exitY=0.5;exitDx=0;exitDy=0;" parent="1" source="vciztOI1bxGepNl09CBd-113" target="vciztOI1bxGepNl09CBd-5" edge="1">
                    <mxGeometry relative="1" as="geometry">
                        <mxPoint x="1180" y="420" as="sourcePoint"/>
                        <mxPoint x="1093.5" y="230" as="targetPoint"/>
                    </mxGeometry>
                </mxCell>
                <mxCell id="vciztOI1bxGepNl09CBd-116" value="1" style="resizable=0;html=1;align=right;verticalAlign=bottom;" parent="vciztOI1bxGepNl09CBd-115" connectable="0" vertex="1">
                    <mxGeometry x="1" relative="1" as="geometry">
                        <mxPoint x="-2" y="20" as="offset"/>
                    </mxGeometry>
                </mxCell>
                <mxCell id="vciztOI1bxGepNl09CBd-117" value="" style="endArrow=none;html=1;rounded=0;exitX=1;exitY=0.5;exitDx=0;exitDy=0;entryX=0;entryY=0.5;entryDx=0;entryDy=0;" parent="1" source="vciztOI1bxGepNl09CBd-113" target="vciztOI1bxGepNl09CBd-112" edge="1">
                    <mxGeometry relative="1" as="geometry">
                        <mxPoint x="1093.5" y="300" as="sourcePoint"/>
                        <mxPoint x="1096" y="400" as="targetPoint"/>
                    </mxGeometry>
                </mxCell>
                <mxCell id="vciztOI1bxGepNl09CBd-118" value="N" style="resizable=0;html=1;align=right;verticalAlign=bottom;" parent="vciztOI1bxGepNl09CBd-117" connectable="0" vertex="1">
                    <mxGeometry x="1" relative="1" as="geometry"/>
                </mxCell>
                <mxCell id="vciztOI1bxGepNl09CBd-119" value="&lt;u&gt;id&lt;/u&gt;" style="ellipse;whiteSpace=wrap;html=1;" parent="1" vertex="1">
                    <mxGeometry x="1345" y="310" width="90" height="50" as="geometry"/>
                </mxCell>
                <mxCell id="vciztOI1bxGepNl09CBd-120" value="" style="endArrow=none;html=1;rounded=0;exitX=0.75;exitY=0;exitDx=0;exitDy=0;entryX=0.448;entryY=1.04;entryDx=0;entryDy=0;entryPerimeter=0;" parent="1" source="vciztOI1bxGepNl09CBd-112" target="vciztOI1bxGepNl09CBd-119" edge="1">
                    <mxGeometry width="50" height="50" relative="1" as="geometry">
                        <mxPoint x="1360.84" y="731.1399999999999" as="sourcePoint"/>
                        <mxPoint x="1420" y="360" as="targetPoint"/>
                    </mxGeometry>
                </mxCell>
                <mxCell id="vciztOI1bxGepNl09CBd-121" value="event" style="ellipse;whiteSpace=wrap;html=1;" parent="1" vertex="1">
                    <mxGeometry x="1434" y="395" width="90" height="50" as="geometry"/>
                </mxCell>
                <mxCell id="vciztOI1bxGepNl09CBd-122" value="" style="endArrow=none;html=1;rounded=0;exitX=1;exitY=0.5;exitDx=0;exitDy=0;" parent="1" source="vciztOI1bxGepNl09CBd-112" target="vciztOI1bxGepNl09CBd-121" edge="1">
                    <mxGeometry width="50" height="50" relative="1" as="geometry">
                        <mxPoint x="1414.4999999999998" y="400" as="sourcePoint"/>
                        <mxPoint x="1430" y="370" as="targetPoint"/>
                    </mxGeometry>
                </mxCell>
                <mxCell id="vciztOI1bxGepNl09CBd-124" value="&lt;div&gt;relates to&lt;/div&gt;" style="rhombus;whiteSpace=wrap;html=1;" parent="1" vertex="1">
                    <mxGeometry x="1289" y="540" width="74" height="40" as="geometry"/>
                </mxCell>
                <mxCell id="vciztOI1bxGepNl09CBd-125" value="" style="endArrow=none;html=1;rounded=0;entryX=0.5;entryY=1;entryDx=0;entryDy=0;exitX=0.5;exitY=0;exitDx=0;exitDy=0;" parent="1" source="vciztOI1bxGepNl09CBd-124" target="vciztOI1bxGepNl09CBd-112" edge="1">
                    <mxGeometry relative="1" as="geometry">
                        <mxPoint x="1093.7911646586344" y="580.2008032128515" as="sourcePoint"/>
                        <mxPoint x="1095.5588235294117" y="460" as="targetPoint"/>
                    </mxGeometry>
                </mxCell>
                <mxCell id="vciztOI1bxGepNl09CBd-126" value="1" style="resizable=0;html=1;align=right;verticalAlign=bottom;" parent="vciztOI1bxGepNl09CBd-125" connectable="0" vertex="1">
                    <mxGeometry x="1" relative="1" as="geometry">
                        <mxPoint x="-2" y="20" as="offset"/>
                    </mxGeometry>
                </mxCell>
                <mxCell id="vciztOI1bxGepNl09CBd-127" value="" style="endArrow=none;html=1;rounded=0;exitX=0.5;exitY=1;exitDx=0;exitDy=0;entryX=0.5;entryY=0;entryDx=0;entryDy=0;" parent="1" source="vciztOI1bxGepNl09CBd-124" target="vciztOI1bxGepNl09CBd-79" edge="1">
                    <mxGeometry relative="1" as="geometry">
                        <mxPoint x="1093.4376344086022" y="619.9569892473119" as="sourcePoint"/>
                        <mxPoint x="1093.0937499999998" y="730" as="targetPoint"/>
                    </mxGeometry>
                </mxCell>
                <mxCell id="vciztOI1bxGepNl09CBd-128" value="N" style="resizable=0;html=1;align=right;verticalAlign=bottom;" parent="vciztOI1bxGepNl09CBd-127" connectable="0" vertex="1">
                    <mxGeometry x="1" relative="1" as="geometry"/>
                </mxCell>
                <mxCell id="vciztOI1bxGepNl09CBd-130" value="&lt;div&gt;event&lt;/div&gt;" style="ellipse;whiteSpace=wrap;html=1;" parent="1" vertex="1">
                    <mxGeometry x="1355" y="830" width="80" height="50" as="geometry"/>
                </mxCell>
                <mxCell id="vciztOI1bxGepNl09CBd-133" value="" style="endArrow=none;html=1;rounded=0;exitX=0.104;exitY=-0.012;exitDx=0;exitDy=0;entryX=0.684;entryY=0.954;entryDx=0;entryDy=0;entryPerimeter=0;exitPerimeter=0;" parent="1" source="vciztOI1bxGepNl09CBd-112" target="vciztOI1bxGepNl09CBd-41" edge="1">
                    <mxGeometry width="50" height="50" relative="1" as="geometry">
                        <mxPoint x="1366.5" y="395" as="sourcePoint"/>
                        <mxPoint x="1395.32" y="372" as="targetPoint"/>
                    </mxGeometry>
                </mxCell>
                <mxCell id="iSNXhVY_5XwgUcJHkdFN-1" value="&lt;u&gt;project_id&lt;/u&gt;" style="whiteSpace=wrap;html=1;align=center;" parent="1" vertex="1">
                    <mxGeometry x="1775" y="160" width="90" height="30" as="geometry"/>
                </mxCell>
                <mxCell id="iSNXhVY_5XwgUcJHkdFN-2" value="&lt;b&gt;Project&lt;/b&gt;" style="text;html=1;align=center;verticalAlign=middle;resizable=0;points=[];autosize=1;strokeColor=none;fillColor=none;" parent="1" vertex="1">
                    <mxGeometry x="1775" y="130" width="60" height="30" as="geometry"/>
                </mxCell>
                <mxCell id="iSNXhVY_5XwgUcJHkdFN-3" value="&lt;u&gt;node_id&lt;/u&gt;" style="whiteSpace=wrap;html=1;align=center;" parent="1" vertex="1">
                    <mxGeometry x="1780" y="240" width="90" height="30" as="geometry"/>
                </mxCell>
                <mxCell id="iSNXhVY_5XwgUcJHkdFN-4" value="&lt;b&gt;Node&lt;/b&gt;" style="text;html=1;align=center;verticalAlign=middle;resizable=0;points=[];autosize=1;strokeColor=none;fillColor=none;" parent="1" vertex="1">
                    <mxGeometry x="1780" y="215" width="50" height="20" as="geometry"/>
                </mxCell>
                <mxCell id="iSNXhVY_5XwgUcJHkdFN-5" style="edgeStyle=orthogonalEdgeStyle;rounded=0;orthogonalLoop=1;jettySize=auto;html=1;entryX=1;entryY=0.5;entryDx=0;entryDy=0;" parent="1" source="iSNXhVY_5XwgUcJHkdFN-6" target="iSNXhVY_5XwgUcJHkdFN-1" edge="1">
                    <mxGeometry relative="1" as="geometry">
                        <Array as="points">
                            <mxPoint x="1915" y="175"/>
                        </Array>
                    </mxGeometry>
                </mxCell>
                <mxCell id="iSNXhVY_5XwgUcJHkdFN-6" value="project" style="whiteSpace=wrap;html=1;align=center;" parent="1" vertex="1">
                    <mxGeometry x="1870" y="240" width="90" height="30" as="geometry"/>
                </mxCell>
                <mxCell id="iSNXhVY_5XwgUcJHkdFN-7" value="&lt;u&gt;id&lt;/u&gt;" style="whiteSpace=wrap;html=1;align=center;" parent="1" vertex="1">
                    <mxGeometry x="1780" y="320" width="90" height="30" as="geometry"/>
                </mxCell>
                <mxCell id="iSNXhVY_5XwgUcJHkdFN-8" value="&lt;b&gt;Node Failure&lt;br&gt;&lt;/b&gt;" style="text;html=1;align=center;verticalAlign=middle;resizable=0;points=[];autosize=1;strokeColor=none;fillColor=none;" parent="1" vertex="1">
                    <mxGeometry x="1775" y="290" width="90" height="20" as="geometry"/>
                </mxCell>
                <mxCell id="iSNXhVY_5XwgUcJHkdFN-9" style="edgeStyle=orthogonalEdgeStyle;rounded=0;orthogonalLoop=1;jettySize=auto;html=1;" parent="1" source="iSNXhVY_5XwgUcJHkdFN-10" target="iSNXhVY_5XwgUcJHkdFN-3" edge="1">
                    <mxGeometry relative="1" as="geometry">
                        <Array as="points">
                            <mxPoint x="1915" y="280"/>
                            <mxPoint x="1825" y="280"/>
                        </Array>
                    </mxGeometry>
                </mxCell>
                <mxCell id="iSNXhVY_5XwgUcJHkdFN-10" value="node" style="whiteSpace=wrap;html=1;align=center;" parent="1" vertex="1">
                    <mxGeometry x="1870" y="320" width="90" height="30" as="geometry"/>
                </mxCell>
                <mxCell id="iSNXhVY_5XwgUcJHkdFN-12" value="flight_phase" style="whiteSpace=wrap;html=1;align=center;" parent="1" vertex="1">
                    <mxGeometry x="2050" y="320" width="90" height="30" as="geometry"/>
                </mxCell>
                <mxCell id="iSNXhVY_5XwgUcJHkdFN-15" value="&lt;div&gt;event&lt;/div&gt;" style="whiteSpace=wrap;html=1;align=center;" parent="1" vertex="1">
                    <mxGeometry x="1960" y="320" width="90" height="30" as="geometry"/>
                </mxCell>
                <mxCell id="iSNXhVY_5XwgUcJHkdFN-16" value="&lt;u&gt;partition_id&lt;/u&gt;" style="whiteSpace=wrap;html=1;align=center;" parent="1" vertex="1">
                    <mxGeometry x="1780" y="400" width="90" height="30" as="geometry"/>
                </mxCell>
                <mxCell id="iSNXhVY_5XwgUcJHkdFN-17" value="&lt;b&gt;Partition&lt;/b&gt;" style="text;html=1;align=center;verticalAlign=middle;resizable=0;points=[];autosize=1;strokeColor=none;fillColor=none;" parent="1" vertex="1">
                    <mxGeometry x="1780" y="375" width="60" height="20" as="geometry"/>
                </mxCell>
                <mxCell id="iSNXhVY_5XwgUcJHkdFN-43" style="edgeStyle=orthogonalEdgeStyle;rounded=0;orthogonalLoop=1;jettySize=auto;html=1;" parent="1" source="iSNXhVY_5XwgUcJHkdFN-18" target="iSNXhVY_5XwgUcJHkdFN-3" edge="1">
                    <mxGeometry relative="1" as="geometry">
                        <Array as="points">
                            <mxPoint x="1915" y="390"/>
                            <mxPoint x="2215" y="390"/>
                            <mxPoint x="2215" y="280"/>
                            <mxPoint x="1825" y="280"/>
                        </Array>
                    </mxGeometry>
                </mxCell>
                <mxCell id="iSNXhVY_5XwgUcJHkdFN-18" value="node" style="whiteSpace=wrap;html=1;align=center;" parent="1" vertex="1">
                    <mxGeometry x="1870" y="400" width="90" height="30" as="geometry"/>
                </mxCell>
                <mxCell id="iSNXhVY_5XwgUcJHkdFN-30" value="&lt;u&gt;id&lt;/u&gt;" style="whiteSpace=wrap;html=1;align=center;" parent="1" vertex="1">
                    <mxGeometry x="1775" y="480" width="70" height="30" as="geometry"/>
                </mxCell>
                <mxCell id="iSNXhVY_5XwgUcJHkdFN-46" style="edgeStyle=orthogonalEdgeStyle;rounded=0;orthogonalLoop=1;jettySize=auto;html=1;entryX=0.5;entryY=1;entryDx=0;entryDy=0;" parent="1" source="iSNXhVY_5XwgUcJHkdFN-32" target="iSNXhVY_5XwgUcJHkdFN-16" edge="1">
                    <mxGeometry relative="1" as="geometry">
                        <Array as="points">
                            <mxPoint x="1895" y="450"/>
                            <mxPoint x="1825" y="450"/>
                        </Array>
                    </mxGeometry>
                </mxCell>
                <mxCell id="iSNXhVY_5XwgUcJHkdFN-32" value="partition" style="whiteSpace=wrap;html=1;align=center;" parent="1" vertex="1">
                    <mxGeometry x="1845" y="480" width="80" height="30" as="geometry"/>
                </mxCell>
                <mxCell id="iSNXhVY_5XwgUcJHkdFN-33" value="failure_mode_effect" style="whiteSpace=wrap;html=1;align=center;" parent="1" vertex="1">
                    <mxGeometry x="1995" y="480" width="120" height="30" as="geometry"/>
                </mxCell>
                <mxCell id="iSNXhVY_5XwgUcJHkdFN-34" value="subsystem_effect" style="whiteSpace=wrap;html=1;align=center;" parent="1" vertex="1">
                    <mxGeometry x="2115" y="480" width="105" height="30" as="geometry"/>
                </mxCell>
                <mxCell id="iSNXhVY_5XwgUcJHkdFN-35" value="aircraft_level_effect" style="whiteSpace=wrap;html=1;align=center;" parent="1" vertex="1">
                    <mxGeometry x="2220" y="480" width="115" height="30" as="geometry"/>
                </mxCell>
                <mxCell id="iSNXhVY_5XwgUcJHkdFN-36" value="mission" style="whiteSpace=wrap;html=1;align=center;" parent="1" vertex="1">
                    <mxGeometry x="2410" y="480" width="75" height="30" as="geometry"/>
                </mxCell>
                <mxCell id="iSNXhVY_5XwgUcJHkdFN-37" value="category" style="whiteSpace=wrap;html=1;align=center;" parent="1" vertex="1">
                    <mxGeometry x="2485" y="480" width="65" height="30" as="geometry"/>
                </mxCell>
                <mxCell id="iSNXhVY_5XwgUcJHkdFN-38" value="&lt;u&gt;application_id&lt;/u&gt;" style="whiteSpace=wrap;html=1;align=center;" parent="1" vertex="1">
                    <mxGeometry x="1775" y="560" width="90" height="30" as="geometry"/>
                </mxCell>
                <mxCell id="iSNXhVY_5XwgUcJHkdFN-39" value="&lt;b&gt;Application&lt;/b&gt;" style="text;html=1;align=center;verticalAlign=middle;resizable=0;points=[];autosize=1;strokeColor=none;fillColor=none;" parent="1" vertex="1">
                    <mxGeometry x="1775" y="530" width="80" height="20" as="geometry"/>
                </mxCell>
                <mxCell id="iSNXhVY_5XwgUcJHkdFN-49" style="edgeStyle=orthogonalEdgeStyle;rounded=0;orthogonalLoop=1;jettySize=auto;html=1;entryX=0.5;entryY=1;entryDx=0;entryDy=0;" parent="1" source="iSNXhVY_5XwgUcJHkdFN-40" target="iSNXhVY_5XwgUcJHkdFN-30" edge="1">
                    <mxGeometry relative="1" as="geometry">
                        <Array as="points">
                            <mxPoint x="1905" y="520"/>
                            <mxPoint x="1810" y="520"/>
                        </Array>
                    </mxGeometry>
                </mxCell>
                <mxCell id="iSNXhVY_5XwgUcJHkdFN-40" value="partition_failure" style="whiteSpace=wrap;html=1;align=center;" parent="1" vertex="1">
                    <mxGeometry x="1865" y="560" width="90" height="30" as="geometry"/>
                </mxCell>
                <mxCell id="iSNXhVY_5XwgUcJHkdFN-42" value="&lt;b&gt;Partition&lt;/b&gt; &lt;b&gt;Faliure&lt;/b&gt;" style="text;html=1;align=center;verticalAlign=middle;resizable=0;points=[];autosize=1;strokeColor=none;fillColor=none;" parent="1" vertex="1">
                    <mxGeometry x="1775" y="455" width="110" height="20" as="geometry"/>
                </mxCell>
                <mxCell id="o_f0ZA7HHD5YjRieoH34-1" style="edgeStyle=orthogonalEdgeStyle;rounded=0;orthogonalLoop=1;jettySize=auto;html=1;entryX=0.5;entryY=1;entryDx=0;entryDy=0;" parent="1" source="iSNXhVY_5XwgUcJHkdFN-47" target="iSNXhVY_5XwgUcJHkdFN-38" edge="1">
                    <mxGeometry relative="1" as="geometry">
                        <Array as="points">
                            <mxPoint x="1960" y="540"/>
                            <mxPoint x="2100" y="540"/>
                            <mxPoint x="2100" y="610"/>
                            <mxPoint x="1820" y="610"/>
                        </Array>
                    </mxGeometry>
                </mxCell>
                <mxCell id="iSNXhVY_5XwgUcJHkdFN-47" value="application" style="whiteSpace=wrap;html=1;align=center;" parent="1" vertex="1">
                    <mxGeometry x="1925" y="480" width="70" height="30" as="geometry"/>
                </mxCell>
                <mxCell id="iSNXhVY_5XwgUcJHkdFN-50" value="event" style="whiteSpace=wrap;html=1;align=center;" parent="1" vertex="1">
                    <mxGeometry x="2335" y="480" width="75" height="30" as="geometry"/>
                </mxCell>
                <mxCell id="iSNXhVY_5XwgUcJHkdFN-51" value="criticality" style="whiteSpace=wrap;html=1;align=center;" parent="1" vertex="1">
                    <mxGeometry x="2550" y="480" width="65" height="30" as="geometry"/>
                </mxCell>
                <mxCell id="e9TG6L3TUmuEvUXEYv7d-1" value="material_group" style="ellipse;whiteSpace=wrap;html=1;" parent="1" vertex="1">
                    <mxGeometry x="1543" y="640" width="96" height="50" as="geometry"/>
                </mxCell>
                <mxCell id="e9TG6L3TUmuEvUXEYv7d-2" value="comments" style="ellipse;whiteSpace=wrap;html=1;" parent="1" vertex="1">
                    <mxGeometry x="1340" y="600" width="90" height="50" as="geometry"/>
                </mxCell>
                <mxCell id="e9TG6L3TUmuEvUXEYv7d-3" value="" style="endArrow=none;html=1;rounded=0;exitX=0.684;exitY=-0.017;exitDx=0;exitDy=0;exitPerimeter=0;" parent="1" source="vciztOI1bxGepNl09CBd-79" target="e9TG6L3TUmuEvUXEYv7d-2" edge="1">
                    <mxGeometry width="50" height="50" relative="1" as="geometry">
                        <mxPoint x="1319.5082166768107" y="730" as="sourcePoint"/>
                        <mxPoint x="1290.8400000000001" y="677.8500000000001" as="targetPoint"/>
                    </mxGeometry>
                </mxCell>
                <mxCell id="e9TG6L3TUmuEvUXEYv7d-4" value="comments" style="whiteSpace=wrap;html=1;align=center;" parent="1" vertex="1">
                    <mxGeometry x="2615" y="480" width="75" height="30" as="geometry"/>
                </mxCell>
                <mxCell id="e9TG6L3TUmuEvUXEYv7d-7" value="" style="endArrow=none;html=1;rounded=0;exitX=0.779;exitY=0.927;exitDx=0;exitDy=0;entryX=0.344;entryY=-0.005;entryDx=0;entryDy=0;exitPerimeter=0;entryPerimeter=0;" parent="1" source="e9TG6L3TUmuEvUXEYv7d-1" target="vciztOI1bxGepNl09CBd-67" edge="1">
                    <mxGeometry width="50" height="50" relative="1" as="geometry">
                        <mxPoint x="1711.44" y="701.7" as="sourcePoint"/>
                        <mxPoint x="1695" y="730" as="targetPoint"/>
                    </mxGeometry>
                </mxCell>
                <mxCell id="e9TG6L3TUmuEvUXEYv7d-8" value="material_group" style="whiteSpace=wrap;html=1;align=center;" parent="1" vertex="1">
                    <mxGeometry x="1955" y="560" width="95" height="30" as="geometry"/>
                </mxCell>
            </root>
        </mxGraphModel>
    </diagram>
    <diagram id="sXGYNlAG_AqdrppfFl4k" name="Sida-4">
        <mxGraphModel dx="-129" dy="879" grid="1" gridSize="10" guides="1" tooltips="1" connect="1" arrows="1" fold="1" page="1" pageScale="1" pageWidth="827" pageHeight="1169" math="0" shadow="0">
            <root>
                <mxCell id="0"/>
                <mxCell id="1" parent="0"/>
                <mxCell id="QBMnjkJRAWfCBT_BCM4e-1" value="&lt;div&gt;Project&lt;/div&gt;" style="html=1;" parent="1" vertex="1">
                    <mxGeometry x="1027" y="160" width="113" height="60" as="geometry"/>
                </mxCell>
                <mxCell id="QBMnjkJRAWfCBT_BCM4e-2" value="&lt;u&gt;id&lt;/u&gt;" style="ellipse;whiteSpace=wrap;html=1;" parent="1" vertex="1">
                    <mxGeometry x="995" y="100" width="80" height="50" as="geometry"/>
                </mxCell>
                <mxCell id="QBMnjkJRAWfCBT_BCM4e-3" value="" style="endArrow=none;html=1;rounded=0;entryX=1;entryY=1;entryDx=0;entryDy=0;exitX=0.456;exitY=-0.008;exitDx=0;exitDy=0;exitPerimeter=0;" parent="1" source="QBMnjkJRAWfCBT_BCM4e-1" target="QBMnjkJRAWfCBT_BCM4e-2" edge="1">
                    <mxGeometry width="50" height="50" relative="1" as="geometry">
                        <mxPoint x="1025" y="190" as="sourcePoint"/>
                        <mxPoint x="1145" y="330" as="targetPoint"/>
                    </mxGeometry>
                </mxCell>
                <mxCell id="QBMnjkJRAWfCBT_BCM4e-4" value="&lt;div&gt;Node&lt;br&gt;&lt;/div&gt;" style="rounded=0;whiteSpace=wrap;html=1;" parent="1" vertex="1">
                    <mxGeometry x="1022" y="395" width="118" height="60" as="geometry"/>
                </mxCell>
                <mxCell id="QBMnjkJRAWfCBT_BCM4e-5" value="&lt;div&gt;Partition&lt;/div&gt;" style="rounded=0;whiteSpace=wrap;html=1;" parent="1" vertex="1">
                    <mxGeometry x="1023" y="720" width="120" height="60" as="geometry"/>
                </mxCell>
                <mxCell id="QBMnjkJRAWfCBT_BCM4e-6" value="has" style="rhombus;whiteSpace=wrap;html=1;" parent="1" vertex="1">
                    <mxGeometry x="1054.5" y="250" width="58" height="40" as="geometry"/>
                </mxCell>
                <mxCell id="QBMnjkJRAWfCBT_BCM4e-7" value="" style="endArrow=none;html=1;rounded=0;entryX=0.5;entryY=1;entryDx=0;entryDy=0;exitX=0.5;exitY=0;exitDx=0;exitDy=0;" parent="1" source="QBMnjkJRAWfCBT_BCM4e-6" target="QBMnjkJRAWfCBT_BCM4e-1" edge="1">
                    <mxGeometry relative="1" as="geometry">
                        <mxPoint x="775" y="410" as="sourcePoint"/>
                        <mxPoint x="935" y="410" as="targetPoint"/>
                    </mxGeometry>
                </mxCell>
                <mxCell id="QBMnjkJRAWfCBT_BCM4e-8" value="1" style="resizable=0;html=1;align=right;verticalAlign=bottom;" parent="QBMnjkJRAWfCBT_BCM4e-7" connectable="0" vertex="1">
                    <mxGeometry x="1" relative="1" as="geometry">
                        <mxPoint x="-2" y="20" as="offset"/>
                    </mxGeometry>
                </mxCell>
                <mxCell id="QBMnjkJRAWfCBT_BCM4e-9" value="" style="endArrow=none;html=1;rounded=0;exitX=0.5;exitY=1;exitDx=0;exitDy=0;entryX=0.5;entryY=0;entryDx=0;entryDy=0;" parent="1" source="QBMnjkJRAWfCBT_BCM4e-6" target="QBMnjkJRAWfCBT_BCM4e-4" edge="1">
                    <mxGeometry relative="1" as="geometry">
                        <mxPoint x="1086.5" y="530" as="sourcePoint"/>
                        <mxPoint x="978" y="700" as="targetPoint"/>
                    </mxGeometry>
                </mxCell>
                <mxCell id="QBMnjkJRAWfCBT_BCM4e-10" value="N" style="resizable=0;html=1;align=right;verticalAlign=bottom;" parent="QBMnjkJRAWfCBT_BCM4e-9" connectable="0" vertex="1">
                    <mxGeometry x="1" relative="1" as="geometry"/>
                </mxCell>
                <mxCell id="QBMnjkJRAWfCBT_BCM4e-11" value="" style="endArrow=none;html=1;rounded=0;" parent="1" source="QBMnjkJRAWfCBT_BCM4e-17" target="QBMnjkJRAWfCBT_BCM4e-4" edge="1">
                    <mxGeometry relative="1" as="geometry">
                        <mxPoint x="1086.5" y="729.9999999999998" as="sourcePoint"/>
                        <mxPoint x="1100" y="530" as="targetPoint"/>
                    </mxGeometry>
                </mxCell>
                <mxCell id="QBMnjkJRAWfCBT_BCM4e-12" value="1" style="resizable=0;html=1;align=right;verticalAlign=bottom;" parent="QBMnjkJRAWfCBT_BCM4e-11" connectable="0" vertex="1">
                    <mxGeometry x="1" relative="1" as="geometry">
                        <mxPoint x="-2" y="20" as="offset"/>
                    </mxGeometry>
                </mxCell>
                <mxCell id="QBMnjkJRAWfCBT_BCM4e-13" value="" style="endArrow=none;html=1;rounded=0;" parent="1" source="QBMnjkJRAWfCBT_BCM4e-17" target="QBMnjkJRAWfCBT_BCM4e-5" edge="1">
                    <mxGeometry relative="1" as="geometry">
                        <mxPoint x="1264" y="600" as="sourcePoint"/>
                        <mxPoint x="1411" y="455" as="targetPoint"/>
                    </mxGeometry>
                </mxCell>
                <mxCell id="QBMnjkJRAWfCBT_BCM4e-14" value="N" style="resizable=0;html=1;align=right;verticalAlign=bottom;" parent="QBMnjkJRAWfCBT_BCM4e-13" connectable="0" vertex="1">
                    <mxGeometry x="1" relative="1" as="geometry"/>
                </mxCell>
                <mxCell id="QBMnjkJRAWfCBT_BCM4e-15" value="&lt;u&gt;id&lt;/u&gt;" style="ellipse;whiteSpace=wrap;html=1;" parent="1" vertex="1">
                    <mxGeometry x="890" y="360" width="80" height="50" as="geometry"/>
                </mxCell>
                <mxCell id="QBMnjkJRAWfCBT_BCM4e-16" value="" style="endArrow=none;html=1;rounded=0;entryX=1;entryY=1;entryDx=0;entryDy=0;exitX=0;exitY=0.25;exitDx=0;exitDy=0;" parent="1" source="QBMnjkJRAWfCBT_BCM4e-4" target="QBMnjkJRAWfCBT_BCM4e-15" edge="1">
                    <mxGeometry width="50" height="50" relative="1" as="geometry">
                        <mxPoint x="1045" y="422.5" as="sourcePoint"/>
                        <mxPoint x="986.2842712474501" y="452.67766952965644" as="targetPoint"/>
                    </mxGeometry>
                </mxCell>
                <mxCell id="QBMnjkJRAWfCBT_BCM4e-17" value="has" style="rhombus;whiteSpace=wrap;html=1;" parent="1" vertex="1">
                    <mxGeometry x="1054.5" y="570" width="58" height="40" as="geometry"/>
                </mxCell>
                <mxCell id="QBMnjkJRAWfCBT_BCM4e-18" value="&lt;u&gt;id&lt;/u&gt;" style="ellipse;whiteSpace=wrap;html=1;" parent="1" vertex="1">
                    <mxGeometry x="918" y="680" width="80" height="50" as="geometry"/>
                </mxCell>
                <mxCell id="QBMnjkJRAWfCBT_BCM4e-19" value="" style="endArrow=none;html=1;rounded=0;" parent="1" source="QBMnjkJRAWfCBT_BCM4e-18" target="QBMnjkJRAWfCBT_BCM4e-5" edge="1">
                    <mxGeometry width="50" height="50" relative="1" as="geometry">
                        <mxPoint x="1348.5" y="440" as="sourcePoint"/>
                        <mxPoint x="1339" y="665" as="targetPoint"/>
                    </mxGeometry>
                </mxCell>
                <mxCell id="QBMnjkJRAWfCBT_BCM4e-20" value="aircraft_level_effect" style="ellipse;whiteSpace=wrap;html=1;" parent="1" vertex="1">
                    <mxGeometry x="1440" y="815" width="110" height="60" as="geometry"/>
                </mxCell>
                <mxCell id="QBMnjkJRAWfCBT_BCM4e-21" value="criticality" style="ellipse;whiteSpace=wrap;html=1;" parent="1" vertex="1">
                    <mxGeometry x="1130" y="660" width="90" height="50" as="geometry"/>
                </mxCell>
                <mxCell id="QBMnjkJRAWfCBT_BCM4e-22" value="flight_phase" style="ellipse;whiteSpace=wrap;html=1;" parent="1" vertex="1">
                    <mxGeometry x="1205" y="300" width="90" height="50" as="geometry"/>
                </mxCell>
                <mxCell id="QBMnjkJRAWfCBT_BCM4e-23" value="mission" style="ellipse;whiteSpace=wrap;html=1;" parent="1" vertex="1">
                    <mxGeometry x="1143" y="800" width="90" height="50" as="geometry"/>
                </mxCell>
                <mxCell id="QBMnjkJRAWfCBT_BCM4e-24" value="category" style="ellipse;whiteSpace=wrap;html=1;" parent="1" vertex="1">
                    <mxGeometry x="1220" y="620" width="90" height="50" as="geometry"/>
                </mxCell>
                <mxCell id="QBMnjkJRAWfCBT_BCM4e-25" value="&lt;h1&gt;EER Diagram&lt;/h1&gt;" style="text;html=1;strokeColor=none;fillColor=none;spacing=5;spacingTop=-20;whiteSpace=wrap;overflow=hidden;rounded=0;" parent="1" vertex="1">
                    <mxGeometry x="1135" y="70" width="190" height="60" as="geometry"/>
                </mxCell>
                <mxCell id="QBMnjkJRAWfCBT_BCM4e-26" value="&lt;h1&gt;Relationship Diagram&lt;/h1&gt;" style="text;html=1;strokeColor=none;fillColor=none;spacing=5;spacingTop=-20;whiteSpace=wrap;overflow=hidden;rounded=0;" parent="1" vertex="1">
                    <mxGeometry x="1770" y="70" width="260" height="60" as="geometry"/>
                </mxCell>
                <mxCell id="QBMnjkJRAWfCBT_BCM4e-27" value="&lt;u&gt;id&lt;/u&gt;" style="ellipse;whiteSpace=wrap;html=1;" parent="1" vertex="1">
                    <mxGeometry x="1670" y="640" width="80" height="50" as="geometry"/>
                </mxCell>
                <mxCell id="QBMnjkJRAWfCBT_BCM4e-28" value="Application" style="rounded=0;whiteSpace=wrap;html=1;" parent="1" vertex="1">
                    <mxGeometry x="1595" y="720" width="120" height="60" as="geometry"/>
                </mxCell>
                <mxCell id="QBMnjkJRAWfCBT_BCM4e-29" value="" style="endArrow=none;html=1;rounded=0;exitX=0.393;exitY=1.034;exitDx=0;exitDy=0;entryX=0.75;entryY=0;entryDx=0;entryDy=0;exitPerimeter=0;" parent="1" source="QBMnjkJRAWfCBT_BCM4e-27" target="QBMnjkJRAWfCBT_BCM4e-28" edge="1">
                    <mxGeometry width="50" height="50" relative="1" as="geometry">
                        <mxPoint x="1002.8749049998385" y="727.2433177127095" as="sourcePoint"/>
                        <mxPoint x="1020.48" y="905.7" as="targetPoint"/>
                    </mxGeometry>
                </mxCell>
                <mxCell id="QBMnjkJRAWfCBT_BCM4e-30" value="" style="endArrow=none;html=1;rounded=0;entryX=0.265;entryY=-0.027;entryDx=0;entryDy=0;exitX=0.75;exitY=1;exitDx=0;exitDy=0;entryPerimeter=0;" parent="1" source="QBMnjkJRAWfCBT_BCM4e-34" target="QBMnjkJRAWfCBT_BCM4e-67" edge="1">
                    <mxGeometry width="50" height="50" relative="1" as="geometry">
                        <mxPoint x="1243" y="700" as="sourcePoint"/>
                        <mxPoint x="1441.7157287525379" y="722.6776695296637" as="targetPoint"/>
                    </mxGeometry>
                </mxCell>
                <mxCell id="QBMnjkJRAWfCBT_BCM4e-31" value="&lt;div&gt;subsystem_effect&lt;/div&gt;" style="ellipse;whiteSpace=wrap;html=1;" parent="1" vertex="1">
                    <mxGeometry x="1231" y="830" width="110" height="50" as="geometry"/>
                </mxCell>
                <mxCell id="QBMnjkJRAWfCBT_BCM4e-32" value="" style="endArrow=none;html=1;rounded=0;exitX=0.551;exitY=-0.023;exitDx=0;exitDy=0;entryX=0.5;entryY=1;entryDx=0;entryDy=0;exitPerimeter=0;" parent="1" source="QBMnjkJRAWfCBT_BCM4e-31" target="QBMnjkJRAWfCBT_BCM4e-34" edge="1">
                    <mxGeometry width="50" height="50" relative="1" as="geometry">
                        <mxPoint x="1173.0000000000002" y="860" as="sourcePoint"/>
                        <mxPoint x="1239.5" y="770.0000000000001" as="targetPoint"/>
                    </mxGeometry>
                </mxCell>
                <mxCell id="QBMnjkJRAWfCBT_BCM4e-33" value="" style="endArrow=none;html=1;rounded=0;exitX=0.3;exitY=0.067;exitDx=0;exitDy=0;entryX=0.803;entryY=0.993;entryDx=0;entryDy=0;exitPerimeter=0;entryPerimeter=0;" parent="1" source="QBMnjkJRAWfCBT_BCM4e-20" target="QBMnjkJRAWfCBT_BCM4e-34" edge="1">
                    <mxGeometry width="50" height="50" relative="1" as="geometry">
                        <mxPoint x="1203.6100000000001" y="818.8500000000001" as="sourcePoint"/>
                        <mxPoint x="1238.126" y="774.3599999999999" as="targetPoint"/>
                    </mxGeometry>
                </mxCell>
                <mxCell id="QBMnjkJRAWfCBT_BCM4e-34" value="Partition Failure" style="rounded=0;whiteSpace=wrap;html=1;" parent="1" vertex="1">
                    <mxGeometry x="1266" y="720" width="120" height="60" as="geometry"/>
                </mxCell>
                <mxCell id="QBMnjkJRAWfCBT_BCM4e-35" value="" style="endArrow=none;html=1;rounded=0;exitX=0;exitY=0;exitDx=0;exitDy=0;" parent="1" source="QBMnjkJRAWfCBT_BCM4e-34" target="QBMnjkJRAWfCBT_BCM4e-21" edge="1">
                    <mxGeometry width="50" height="50" relative="1" as="geometry">
                        <mxPoint x="1383.28" y="730.54" as="sourcePoint"/>
                        <mxPoint x="1404.28" y="681" as="targetPoint"/>
                    </mxGeometry>
                </mxCell>
                <mxCell id="QBMnjkJRAWfCBT_BCM4e-36" value="has" style="rhombus;whiteSpace=wrap;html=1;" parent="1" vertex="1">
                    <mxGeometry x="1173" y="730" width="58" height="40" as="geometry"/>
                </mxCell>
                <mxCell id="QBMnjkJRAWfCBT_BCM4e-37" value="" style="endArrow=none;html=1;rounded=0;entryX=1;entryY=0.5;entryDx=0;entryDy=0;exitX=0;exitY=0.5;exitDx=0;exitDy=0;" parent="1" source="QBMnjkJRAWfCBT_BCM4e-36" target="QBMnjkJRAWfCBT_BCM4e-5" edge="1">
                    <mxGeometry relative="1" as="geometry">
                        <mxPoint x="1096.5" y="660" as="sourcePoint"/>
                        <mxPoint x="1096.5" y="640" as="targetPoint"/>
                    </mxGeometry>
                </mxCell>
                <mxCell id="QBMnjkJRAWfCBT_BCM4e-38" value="1" style="resizable=0;html=1;align=right;verticalAlign=bottom;" parent="QBMnjkJRAWfCBT_BCM4e-37" connectable="0" vertex="1">
                    <mxGeometry x="1" relative="1" as="geometry">
                        <mxPoint x="-2" y="20" as="offset"/>
                    </mxGeometry>
                </mxCell>
                <mxCell id="QBMnjkJRAWfCBT_BCM4e-39" value="" style="endArrow=none;html=1;rounded=0;entryX=0;entryY=0.5;entryDx=0;entryDy=0;" parent="1" target="QBMnjkJRAWfCBT_BCM4e-34" edge="1">
                    <mxGeometry relative="1" as="geometry">
                        <mxPoint x="1233" y="750" as="sourcePoint"/>
                        <mxPoint x="1094.3125" y="730" as="targetPoint"/>
                    </mxGeometry>
                </mxCell>
                <mxCell id="QBMnjkJRAWfCBT_BCM4e-40" value="N" style="resizable=0;html=1;align=right;verticalAlign=bottom;" parent="QBMnjkJRAWfCBT_BCM4e-39" connectable="0" vertex="1">
                    <mxGeometry x="1" relative="1" as="geometry"/>
                </mxCell>
                <mxCell id="QBMnjkJRAWfCBT_BCM4e-41" value="in" style="rhombus;whiteSpace=wrap;html=1;" parent="1" vertex="1">
                    <mxGeometry x="1485" y="730" width="58" height="40" as="geometry"/>
                </mxCell>
                <mxCell id="QBMnjkJRAWfCBT_BCM4e-42" value="" style="endArrow=none;html=1;rounded=0;entryX=1;entryY=0.5;entryDx=0;entryDy=0;exitX=0;exitY=0.5;exitDx=0;exitDy=0;" parent="1" source="QBMnjkJRAWfCBT_BCM4e-41" target="QBMnjkJRAWfCBT_BCM4e-34" edge="1">
                    <mxGeometry relative="1" as="geometry">
                        <mxPoint x="1243" y="760" as="sourcePoint"/>
                        <mxPoint x="1276" y="760" as="targetPoint"/>
                    </mxGeometry>
                </mxCell>
                <mxCell id="QBMnjkJRAWfCBT_BCM4e-43" value="N" style="resizable=0;html=1;align=right;verticalAlign=bottom;" parent="QBMnjkJRAWfCBT_BCM4e-42" connectable="0" vertex="1">
                    <mxGeometry x="1" relative="1" as="geometry"/>
                </mxCell>
                <mxCell id="QBMnjkJRAWfCBT_BCM4e-44" value="" style="endArrow=none;html=1;rounded=0;entryX=0;entryY=0.5;entryDx=0;entryDy=0;exitX=1;exitY=0.5;exitDx=0;exitDy=0;" parent="1" source="QBMnjkJRAWfCBT_BCM4e-41" target="QBMnjkJRAWfCBT_BCM4e-28" edge="1">
                    <mxGeometry relative="1" as="geometry">
                        <mxPoint x="1423" y="760" as="sourcePoint"/>
                        <mxPoint x="1396" y="760" as="targetPoint"/>
                    </mxGeometry>
                </mxCell>
                <mxCell id="QBMnjkJRAWfCBT_BCM4e-45" value="N" style="resizable=0;html=1;align=right;verticalAlign=bottom;" parent="QBMnjkJRAWfCBT_BCM4e-44" connectable="0" vertex="1">
                    <mxGeometry x="1" relative="1" as="geometry"/>
                </mxCell>
                <mxCell id="QBMnjkJRAWfCBT_BCM4e-46" value="" style="endArrow=none;html=1;rounded=0;entryX=0.142;entryY=1;entryDx=0;entryDy=0;entryPerimeter=0;" parent="1" source="QBMnjkJRAWfCBT_BCM4e-23" target="QBMnjkJRAWfCBT_BCM4e-34" edge="1">
                    <mxGeometry width="50" height="50" relative="1" as="geometry">
                        <mxPoint x="1338.6100000000001" y="848.8500000000001" as="sourcePoint"/>
                        <mxPoint x="1336" y="790" as="targetPoint"/>
                    </mxGeometry>
                </mxCell>
                <mxCell id="QBMnjkJRAWfCBT_BCM4e-47" value="" style="endArrow=none;html=1;rounded=0;entryX=0.676;entryY=0.957;entryDx=0;entryDy=0;entryPerimeter=0;" parent="1" source="QBMnjkJRAWfCBT_BCM4e-34" target="QBMnjkJRAWfCBT_BCM4e-24" edge="1">
                    <mxGeometry width="50" height="50" relative="1" as="geometry">
                        <mxPoint x="1256.484901511623" y="823.6746296618592" as="sourcePoint"/>
                        <mxPoint x="1293.04" y="790" as="targetPoint"/>
                    </mxGeometry>
                </mxCell>
                <mxCell id="QBMnjkJRAWfCBT_BCM4e-48" value="preflight_failure_detection" style="ellipse;whiteSpace=wrap;html=1;" parent="1" vertex="1">
                    <mxGeometry x="1290" y="900" width="140" height="60" as="geometry"/>
                </mxCell>
                <mxCell id="QBMnjkJRAWfCBT_BCM4e-49" value="" style="endArrow=none;html=1;rounded=0;exitX=0.5;exitY=0;exitDx=0;exitDy=0;entryX=0.673;entryY=0.995;entryDx=0;entryDy=0;entryPerimeter=0;" parent="1" source="QBMnjkJRAWfCBT_BCM4e-48" target="QBMnjkJRAWfCBT_BCM4e-34" edge="1">
                    <mxGeometry width="50" height="50" relative="1" as="geometry">
                        <mxPoint x="1338.6100000000001" y="848.8499999999999" as="sourcePoint"/>
                        <mxPoint x="1336" y="790" as="targetPoint"/>
                    </mxGeometry>
                </mxCell>
                <mxCell id="QBMnjkJRAWfCBT_BCM4e-50" value="&lt;u&gt;id&lt;/u&gt;" style="ellipse;whiteSpace=wrap;html=1;" parent="1" vertex="1">
                    <mxGeometry x="1405" y="660" width="80" height="50" as="geometry"/>
                </mxCell>
                <mxCell id="QBMnjkJRAWfCBT_BCM4e-51" value="" style="endArrow=none;html=1;rounded=0;entryX=0;entryY=1;entryDx=0;entryDy=0;exitX=0.867;exitY=0;exitDx=0;exitDy=0;exitPerimeter=0;" parent="1" source="QBMnjkJRAWfCBT_BCM4e-34" target="QBMnjkJRAWfCBT_BCM4e-50" edge="1">
                    <mxGeometry width="50" height="50" relative="1" as="geometry">
                        <mxPoint x="1321.5999999999997" y="731.56" as="sourcePoint"/>
                        <mxPoint x="1342.2699999999998" y="670.8999999999999" as="targetPoint"/>
                    </mxGeometry>
                </mxCell>
                <mxCell id="QBMnjkJRAWfCBT_BCM4e-52" value="Node Failure" style="rounded=0;whiteSpace=wrap;html=1;" parent="1" vertex="1">
                    <mxGeometry x="1268" y="395" width="118" height="60" as="geometry"/>
                </mxCell>
                <mxCell id="QBMnjkJRAWfCBT_BCM4e-53" value="has" style="rhombus;whiteSpace=wrap;html=1;" parent="1" vertex="1">
                    <mxGeometry x="1180" y="405" width="58" height="40" as="geometry"/>
                </mxCell>
                <mxCell id="QBMnjkJRAWfCBT_BCM4e-54" value="" style="endArrow=none;html=1;rounded=0;entryX=1;entryY=0.5;entryDx=0;entryDy=0;exitX=0;exitY=0.5;exitDx=0;exitDy=0;" parent="1" source="QBMnjkJRAWfCBT_BCM4e-53" target="QBMnjkJRAWfCBT_BCM4e-4" edge="1">
                    <mxGeometry relative="1" as="geometry">
                        <mxPoint x="1180" y="420" as="sourcePoint"/>
                        <mxPoint x="1093.5" y="230" as="targetPoint"/>
                    </mxGeometry>
                </mxCell>
                <mxCell id="QBMnjkJRAWfCBT_BCM4e-55" value="1" style="resizable=0;html=1;align=right;verticalAlign=bottom;" parent="QBMnjkJRAWfCBT_BCM4e-54" connectable="0" vertex="1">
                    <mxGeometry x="1" relative="1" as="geometry">
                        <mxPoint x="-2" y="20" as="offset"/>
                    </mxGeometry>
                </mxCell>
                <mxCell id="QBMnjkJRAWfCBT_BCM4e-56" value="" style="endArrow=none;html=1;rounded=0;exitX=1;exitY=0.5;exitDx=0;exitDy=0;entryX=0;entryY=0.5;entryDx=0;entryDy=0;" parent="1" source="QBMnjkJRAWfCBT_BCM4e-53" target="QBMnjkJRAWfCBT_BCM4e-52" edge="1">
                    <mxGeometry relative="1" as="geometry">
                        <mxPoint x="1093.5" y="300" as="sourcePoint"/>
                        <mxPoint x="1096" y="400" as="targetPoint"/>
                    </mxGeometry>
                </mxCell>
                <mxCell id="QBMnjkJRAWfCBT_BCM4e-57" value="N" style="resizable=0;html=1;align=right;verticalAlign=bottom;" parent="QBMnjkJRAWfCBT_BCM4e-56" connectable="0" vertex="1">
                    <mxGeometry x="1" relative="1" as="geometry"/>
                </mxCell>
                <mxCell id="QBMnjkJRAWfCBT_BCM4e-58" value="&lt;u&gt;id&lt;/u&gt;" style="ellipse;whiteSpace=wrap;html=1;" parent="1" vertex="1">
                    <mxGeometry x="1345" y="310" width="90" height="50" as="geometry"/>
                </mxCell>
                <mxCell id="QBMnjkJRAWfCBT_BCM4e-59" value="" style="endArrow=none;html=1;rounded=0;exitX=0.75;exitY=0;exitDx=0;exitDy=0;entryX=0.448;entryY=1.04;entryDx=0;entryDy=0;entryPerimeter=0;" parent="1" source="QBMnjkJRAWfCBT_BCM4e-52" target="QBMnjkJRAWfCBT_BCM4e-58" edge="1">
                    <mxGeometry width="50" height="50" relative="1" as="geometry">
                        <mxPoint x="1360.84" y="731.1399999999999" as="sourcePoint"/>
                        <mxPoint x="1420" y="360" as="targetPoint"/>
                    </mxGeometry>
                </mxCell>
                <mxCell id="QBMnjkJRAWfCBT_BCM4e-60" value="event" style="ellipse;whiteSpace=wrap;html=1;" parent="1" vertex="1">
                    <mxGeometry x="1434" y="395" width="90" height="50" as="geometry"/>
                </mxCell>
                <mxCell id="QBMnjkJRAWfCBT_BCM4e-61" value="" style="endArrow=none;html=1;rounded=0;exitX=1;exitY=0.5;exitDx=0;exitDy=0;" parent="1" source="QBMnjkJRAWfCBT_BCM4e-52" target="QBMnjkJRAWfCBT_BCM4e-60" edge="1">
                    <mxGeometry width="50" height="50" relative="1" as="geometry">
                        <mxPoint x="1414.4999999999998" y="400" as="sourcePoint"/>
                        <mxPoint x="1430" y="370" as="targetPoint"/>
                    </mxGeometry>
                </mxCell>
                <mxCell id="QBMnjkJRAWfCBT_BCM4e-62" value="&lt;div&gt;relates to&lt;/div&gt;" style="rhombus;whiteSpace=wrap;html=1;" parent="1" vertex="1">
                    <mxGeometry x="1289" y="540" width="74" height="40" as="geometry"/>
                </mxCell>
                <mxCell id="QBMnjkJRAWfCBT_BCM4e-63" value="" style="endArrow=none;html=1;rounded=0;entryX=0.5;entryY=1;entryDx=0;entryDy=0;exitX=0.5;exitY=0;exitDx=0;exitDy=0;" parent="1" source="QBMnjkJRAWfCBT_BCM4e-62" target="QBMnjkJRAWfCBT_BCM4e-52" edge="1">
                    <mxGeometry relative="1" as="geometry">
                        <mxPoint x="1093.7911646586344" y="580.2008032128515" as="sourcePoint"/>
                        <mxPoint x="1095.5588235294117" y="460" as="targetPoint"/>
                    </mxGeometry>
                </mxCell>
                <mxCell id="QBMnjkJRAWfCBT_BCM4e-64" value="1" style="resizable=0;html=1;align=right;verticalAlign=bottom;" parent="QBMnjkJRAWfCBT_BCM4e-63" connectable="0" vertex="1">
                    <mxGeometry x="1" relative="1" as="geometry">
                        <mxPoint x="-2" y="20" as="offset"/>
                    </mxGeometry>
                </mxCell>
                <mxCell id="QBMnjkJRAWfCBT_BCM4e-65" value="" style="endArrow=none;html=1;rounded=0;exitX=0.5;exitY=1;exitDx=0;exitDy=0;entryX=0.5;entryY=0;entryDx=0;entryDy=0;" parent="1" source="QBMnjkJRAWfCBT_BCM4e-62" target="QBMnjkJRAWfCBT_BCM4e-34" edge="1">
                    <mxGeometry relative="1" as="geometry">
                        <mxPoint x="1093.4376344086022" y="619.9569892473119" as="sourcePoint"/>
                        <mxPoint x="1093.0937499999998" y="730" as="targetPoint"/>
                    </mxGeometry>
                </mxCell>
                <mxCell id="QBMnjkJRAWfCBT_BCM4e-66" value="N" style="resizable=0;html=1;align=right;verticalAlign=bottom;" parent="QBMnjkJRAWfCBT_BCM4e-65" connectable="0" vertex="1">
                    <mxGeometry x="1" relative="1" as="geometry"/>
                </mxCell>
                <mxCell id="QBMnjkJRAWfCBT_BCM4e-67" value="&lt;div&gt;event&lt;/div&gt;" style="ellipse;whiteSpace=wrap;html=1;" parent="1" vertex="1">
                    <mxGeometry x="1355" y="830" width="80" height="50" as="geometry"/>
                </mxCell>
                <mxCell id="QBMnjkJRAWfCBT_BCM4e-68" value="" style="endArrow=none;html=1;rounded=0;exitX=0.104;exitY=-0.012;exitDx=0;exitDy=0;entryX=0.684;entryY=0.954;entryDx=0;entryDy=0;entryPerimeter=0;exitPerimeter=0;" parent="1" source="QBMnjkJRAWfCBT_BCM4e-52" target="QBMnjkJRAWfCBT_BCM4e-22" edge="1">
                    <mxGeometry width="50" height="50" relative="1" as="geometry">
                        <mxPoint x="1366.5" y="395" as="sourcePoint"/>
                        <mxPoint x="1395.32" y="372" as="targetPoint"/>
                    </mxGeometry>
                </mxCell>
                <mxCell id="QBMnjkJRAWfCBT_BCM4e-69" value="&lt;u&gt;project_id&lt;/u&gt;" style="whiteSpace=wrap;html=1;align=center;" parent="1" vertex="1">
                    <mxGeometry x="1775" y="160" width="90" height="30" as="geometry"/>
                </mxCell>
                <mxCell id="QBMnjkJRAWfCBT_BCM4e-70" value="&lt;b&gt;Project&lt;/b&gt;" style="text;html=1;align=center;verticalAlign=middle;resizable=0;points=[];autosize=1;strokeColor=none;fillColor=none;" parent="1" vertex="1">
                    <mxGeometry x="1775" y="130" width="60" height="30" as="geometry"/>
                </mxCell>
                <mxCell id="QBMnjkJRAWfCBT_BCM4e-71" value="&lt;u&gt;node_id&lt;/u&gt;" style="whiteSpace=wrap;html=1;align=center;" parent="1" vertex="1">
                    <mxGeometry x="1780" y="240" width="90" height="30" as="geometry"/>
                </mxCell>
                <mxCell id="QBMnjkJRAWfCBT_BCM4e-72" value="&lt;b&gt;Node&lt;/b&gt;" style="text;html=1;align=center;verticalAlign=middle;resizable=0;points=[];autosize=1;strokeColor=none;fillColor=none;" parent="1" vertex="1">
                    <mxGeometry x="1780" y="215" width="50" height="20" as="geometry"/>
                </mxCell>
                <mxCell id="QBMnjkJRAWfCBT_BCM4e-73" style="edgeStyle=orthogonalEdgeStyle;rounded=0;orthogonalLoop=1;jettySize=auto;html=1;entryX=1;entryY=0.5;entryDx=0;entryDy=0;" parent="1" source="QBMnjkJRAWfCBT_BCM4e-74" target="QBMnjkJRAWfCBT_BCM4e-69" edge="1">
                    <mxGeometry relative="1" as="geometry">
                        <Array as="points">
                            <mxPoint x="1915" y="175"/>
                        </Array>
                    </mxGeometry>
                </mxCell>
                <mxCell id="QBMnjkJRAWfCBT_BCM4e-74" value="project" style="whiteSpace=wrap;html=1;align=center;" parent="1" vertex="1">
                    <mxGeometry x="1870" y="240" width="90" height="30" as="geometry"/>
                </mxCell>
                <mxCell id="QBMnjkJRAWfCBT_BCM4e-75" value="&lt;u&gt;id&lt;/u&gt;" style="whiteSpace=wrap;html=1;align=center;" parent="1" vertex="1">
                    <mxGeometry x="1780" y="320" width="90" height="30" as="geometry"/>
                </mxCell>
                <mxCell id="QBMnjkJRAWfCBT_BCM4e-76" value="&lt;b&gt;Node Failure&lt;br&gt;&lt;/b&gt;" style="text;html=1;align=center;verticalAlign=middle;resizable=0;points=[];autosize=1;strokeColor=none;fillColor=none;" parent="1" vertex="1">
                    <mxGeometry x="1775" y="290" width="90" height="20" as="geometry"/>
                </mxCell>
                <mxCell id="QBMnjkJRAWfCBT_BCM4e-77" style="edgeStyle=orthogonalEdgeStyle;rounded=0;orthogonalLoop=1;jettySize=auto;html=1;" parent="1" source="QBMnjkJRAWfCBT_BCM4e-78" target="QBMnjkJRAWfCBT_BCM4e-71" edge="1">
                    <mxGeometry relative="1" as="geometry">
                        <Array as="points">
                            <mxPoint x="1915" y="280"/>
                            <mxPoint x="1825" y="280"/>
                        </Array>
                    </mxGeometry>
                </mxCell>
                <mxCell id="QBMnjkJRAWfCBT_BCM4e-78" value="node" style="whiteSpace=wrap;html=1;align=center;" parent="1" vertex="1">
                    <mxGeometry x="1870" y="320" width="90" height="30" as="geometry"/>
                </mxCell>
                <mxCell id="QBMnjkJRAWfCBT_BCM4e-79" value="flight_phase" style="whiteSpace=wrap;html=1;align=center;" parent="1" vertex="1">
                    <mxGeometry x="2050" y="320" width="90" height="30" as="geometry"/>
                </mxCell>
                <mxCell id="QBMnjkJRAWfCBT_BCM4e-80" value="&lt;div&gt;event&lt;/div&gt;" style="whiteSpace=wrap;html=1;align=center;" parent="1" vertex="1">
                    <mxGeometry x="1960" y="320" width="90" height="30" as="geometry"/>
                </mxCell>
                <mxCell id="QBMnjkJRAWfCBT_BCM4e-81" value="&lt;u&gt;partition_id&lt;/u&gt;" style="whiteSpace=wrap;html=1;align=center;" parent="1" vertex="1">
                    <mxGeometry x="1780" y="400" width="90" height="30" as="geometry"/>
                </mxCell>
                <mxCell id="QBMnjkJRAWfCBT_BCM4e-82" value="&lt;b&gt;Partition&lt;/b&gt;" style="text;html=1;align=center;verticalAlign=middle;resizable=0;points=[];autosize=1;strokeColor=none;fillColor=none;" parent="1" vertex="1">
                    <mxGeometry x="1780" y="375" width="60" height="20" as="geometry"/>
                </mxCell>
                <mxCell id="QBMnjkJRAWfCBT_BCM4e-83" style="edgeStyle=orthogonalEdgeStyle;rounded=0;orthogonalLoop=1;jettySize=auto;html=1;" parent="1" source="QBMnjkJRAWfCBT_BCM4e-84" target="QBMnjkJRAWfCBT_BCM4e-71" edge="1">
                    <mxGeometry relative="1" as="geometry">
                        <Array as="points">
                            <mxPoint x="1915" y="390"/>
                            <mxPoint x="2215" y="390"/>
                            <mxPoint x="2215" y="280"/>
                            <mxPoint x="1825" y="280"/>
                        </Array>
                    </mxGeometry>
                </mxCell>
                <mxCell id="QBMnjkJRAWfCBT_BCM4e-84" value="node" style="whiteSpace=wrap;html=1;align=center;" parent="1" vertex="1">
                    <mxGeometry x="1870" y="400" width="90" height="30" as="geometry"/>
                </mxCell>
                <mxCell id="QBMnjkJRAWfCBT_BCM4e-85" value="&lt;u&gt;id&lt;/u&gt;" style="whiteSpace=wrap;html=1;align=center;" parent="1" vertex="1">
                    <mxGeometry x="1775" y="480" width="70" height="30" as="geometry"/>
                </mxCell>
                <mxCell id="QBMnjkJRAWfCBT_BCM4e-86" style="edgeStyle=orthogonalEdgeStyle;rounded=0;orthogonalLoop=1;jettySize=auto;html=1;entryX=0.5;entryY=1;entryDx=0;entryDy=0;" parent="1" source="QBMnjkJRAWfCBT_BCM4e-87" target="QBMnjkJRAWfCBT_BCM4e-81" edge="1">
                    <mxGeometry relative="1" as="geometry">
                        <Array as="points">
                            <mxPoint x="1895" y="450"/>
                            <mxPoint x="1825" y="450"/>
                        </Array>
                    </mxGeometry>
                </mxCell>
                <mxCell id="QBMnjkJRAWfCBT_BCM4e-87" value="partition" style="whiteSpace=wrap;html=1;align=center;" parent="1" vertex="1">
                    <mxGeometry x="1845" y="480" width="80" height="30" as="geometry"/>
                </mxCell>
                <mxCell id="QBMnjkJRAWfCBT_BCM4e-88" value="failure_mode_effect" style="whiteSpace=wrap;html=1;align=center;" parent="1" vertex="1">
                    <mxGeometry x="1995" y="480" width="120" height="30" as="geometry"/>
                </mxCell>
                <mxCell id="QBMnjkJRAWfCBT_BCM4e-89" value="subsystem_effect" style="whiteSpace=wrap;html=1;align=center;" parent="1" vertex="1">
                    <mxGeometry x="2115" y="480" width="105" height="30" as="geometry"/>
                </mxCell>
                <mxCell id="QBMnjkJRAWfCBT_BCM4e-90" value="aircraft_level_effect" style="whiteSpace=wrap;html=1;align=center;" parent="1" vertex="1">
                    <mxGeometry x="2220" y="480" width="115" height="30" as="geometry"/>
                </mxCell>
                <mxCell id="QBMnjkJRAWfCBT_BCM4e-91" value="mission" style="whiteSpace=wrap;html=1;align=center;" parent="1" vertex="1">
                    <mxGeometry x="2410" y="480" width="75" height="30" as="geometry"/>
                </mxCell>
                <mxCell id="QBMnjkJRAWfCBT_BCM4e-92" value="category" style="whiteSpace=wrap;html=1;align=center;" parent="1" vertex="1">
                    <mxGeometry x="2485" y="480" width="65" height="30" as="geometry"/>
                </mxCell>
                <mxCell id="QBMnjkJRAWfCBT_BCM4e-93" value="&lt;u&gt;application_id&lt;/u&gt;" style="whiteSpace=wrap;html=1;align=center;" parent="1" vertex="1">
                    <mxGeometry x="1775" y="560" width="90" height="30" as="geometry"/>
                </mxCell>
                <mxCell id="QBMnjkJRAWfCBT_BCM4e-94" value="&lt;b&gt;Application&lt;/b&gt;" style="text;html=1;align=center;verticalAlign=middle;resizable=0;points=[];autosize=1;strokeColor=none;fillColor=none;" parent="1" vertex="1">
                    <mxGeometry x="1775" y="530" width="80" height="20" as="geometry"/>
                </mxCell>
                <mxCell id="QBMnjkJRAWfCBT_BCM4e-95" style="edgeStyle=orthogonalEdgeStyle;rounded=0;orthogonalLoop=1;jettySize=auto;html=1;entryX=0.5;entryY=1;entryDx=0;entryDy=0;" parent="1" source="QBMnjkJRAWfCBT_BCM4e-96" target="QBMnjkJRAWfCBT_BCM4e-85" edge="1">
                    <mxGeometry relative="1" as="geometry">
                        <Array as="points">
                            <mxPoint x="1905" y="520"/>
                            <mxPoint x="1810" y="520"/>
                        </Array>
                    </mxGeometry>
                </mxCell>
                <mxCell id="QBMnjkJRAWfCBT_BCM4e-96" value="partition_failure" style="whiteSpace=wrap;html=1;align=center;" parent="1" vertex="1">
                    <mxGeometry x="1865" y="560" width="90" height="30" as="geometry"/>
                </mxCell>
                <mxCell id="QBMnjkJRAWfCBT_BCM4e-97" value="&lt;b&gt;Partition&lt;/b&gt; &lt;b&gt;Faliure&lt;/b&gt;" style="text;html=1;align=center;verticalAlign=middle;resizable=0;points=[];autosize=1;strokeColor=none;fillColor=none;" parent="1" vertex="1">
                    <mxGeometry x="1775" y="455" width="110" height="20" as="geometry"/>
                </mxCell>
                <mxCell id="QBMnjkJRAWfCBT_BCM4e-98" style="edgeStyle=orthogonalEdgeStyle;rounded=0;orthogonalLoop=1;jettySize=auto;html=1;entryX=0.5;entryY=1;entryDx=0;entryDy=0;" parent="1" source="QBMnjkJRAWfCBT_BCM4e-99" target="QBMnjkJRAWfCBT_BCM4e-93" edge="1">
                    <mxGeometry relative="1" as="geometry">
                        <Array as="points">
                            <mxPoint x="1960" y="540"/>
                            <mxPoint x="2100" y="540"/>
                            <mxPoint x="2100" y="610"/>
                            <mxPoint x="1820" y="610"/>
                        </Array>
                    </mxGeometry>
                </mxCell>
                <mxCell id="QBMnjkJRAWfCBT_BCM4e-99" value="application" style="whiteSpace=wrap;html=1;align=center;" parent="1" vertex="1">
                    <mxGeometry x="1925" y="480" width="70" height="30" as="geometry"/>
                </mxCell>
                <mxCell id="QBMnjkJRAWfCBT_BCM4e-100" value="event" style="whiteSpace=wrap;html=1;align=center;" parent="1" vertex="1">
                    <mxGeometry x="2335" y="480" width="75" height="30" as="geometry"/>
                </mxCell>
                <mxCell id="QBMnjkJRAWfCBT_BCM4e-101" value="criticality" style="whiteSpace=wrap;html=1;align=center;" parent="1" vertex="1">
                    <mxGeometry x="2550" y="480" width="65" height="30" as="geometry"/>
                </mxCell>
                <mxCell id="QBMnjkJRAWfCBT_BCM4e-103" value="comments" style="ellipse;whiteSpace=wrap;html=1;" parent="1" vertex="1">
                    <mxGeometry x="1340" y="600" width="90" height="50" as="geometry"/>
                </mxCell>
                <mxCell id="QBMnjkJRAWfCBT_BCM4e-104" value="" style="endArrow=none;html=1;rounded=0;exitX=0.684;exitY=-0.017;exitDx=0;exitDy=0;exitPerimeter=0;" parent="1" source="QBMnjkJRAWfCBT_BCM4e-34" target="QBMnjkJRAWfCBT_BCM4e-103" edge="1">
                    <mxGeometry width="50" height="50" relative="1" as="geometry">
                        <mxPoint x="1319.5082166768107" y="730" as="sourcePoint"/>
                        <mxPoint x="1290.8400000000001" y="677.8500000000001" as="targetPoint"/>
                    </mxGeometry>
                </mxCell>
                <mxCell id="QBMnjkJRAWfCBT_BCM4e-105" value="comments" style="whiteSpace=wrap;html=1;align=center;" parent="1" vertex="1">
                    <mxGeometry x="2615" y="480" width="75" height="30" as="geometry"/>
                </mxCell>
                <mxCell id="QBMnjkJRAWfCBT_BCM4e-107" value="material_group" style="whiteSpace=wrap;html=1;align=center;" parent="1" vertex="1">
                    <mxGeometry x="1955" y="560" width="95" height="30" as="geometry"/>
                </mxCell>
                <mxCell id="QBMnjkJRAWfCBT_BCM4e-108" value="MaterialGroup" style="rounded=0;whiteSpace=wrap;html=1;" parent="1" vertex="1">
                    <mxGeometry x="1268" y="1060" width="118" height="60" as="geometry"/>
                </mxCell>
                <mxCell id="QBMnjkJRAWfCBT_BCM4e-109" value="responsble_for" style="rhombus;whiteSpace=wrap;html=1;" parent="1" vertex="1">
                    <mxGeometry x="1524" y="960" width="116" height="50" as="geometry"/>
                </mxCell>
                <mxCell id="QBMnjkJRAWfCBT_BCM4e-110" value="" style="endArrow=none;html=1;rounded=0;exitX=0;exitY=1;exitDx=0;exitDy=0;entryX=1;entryY=0.5;entryDx=0;entryDy=0;" parent="1" source="QBMnjkJRAWfCBT_BCM4e-109" target="QBMnjkJRAWfCBT_BCM4e-108" edge="1">
                    <mxGeometry relative="1" as="geometry">
                        <mxPoint x="1093.2001034126163" y="580.2068252326785" as="sourcePoint"/>
                        <mxPoint x="1390" y="1090" as="targetPoint"/>
                    </mxGeometry>
                </mxCell>
                <mxCell id="QBMnjkJRAWfCBT_BCM4e-111" value="1" style="resizable=0;html=1;align=right;verticalAlign=bottom;" parent="QBMnjkJRAWfCBT_BCM4e-110" connectable="0" vertex="1">
                    <mxGeometry x="1" relative="1" as="geometry">
                        <mxPoint x="-2" y="20" as="offset"/>
                    </mxGeometry>
                </mxCell>
                <mxCell id="QBMnjkJRAWfCBT_BCM4e-112" value="" style="endArrow=none;html=1;rounded=0;exitX=1;exitY=0;exitDx=0;exitDy=0;" parent="1" source="QBMnjkJRAWfCBT_BCM4e-109" target="QBMnjkJRAWfCBT_BCM4e-28" edge="1">
                    <mxGeometry relative="1" as="geometry">
                        <mxPoint x="1548.5" y="1000" as="sourcePoint"/>
                        <mxPoint x="1400" y="1100" as="targetPoint"/>
                    </mxGeometry>
                </mxCell>
                <mxCell id="QBMnjkJRAWfCBT_BCM4e-113" value="1" style="resizable=0;html=1;align=right;verticalAlign=bottom;" parent="QBMnjkJRAWfCBT_BCM4e-112" connectable="0" vertex="1">
                    <mxGeometry x="1" relative="1" as="geometry">
                        <mxPoint x="-2" y="20" as="offset"/>
                    </mxGeometry>
                </mxCell>
                <mxCell id="QBMnjkJRAWfCBT_BCM4e-114" value="responsble_for" style="rhombus;whiteSpace=wrap;html=1;" parent="1" vertex="1">
                    <mxGeometry x="1080" y="930" width="116" height="50" as="geometry"/>
                </mxCell>
                <mxCell id="QBMnjkJRAWfCBT_BCM4e-115" value="" style="endArrow=none;html=1;rounded=0;entryX=0;entryY=0.25;entryDx=0;entryDy=0;" parent="1" source="QBMnjkJRAWfCBT_BCM4e-114" target="QBMnjkJRAWfCBT_BCM4e-108" edge="1">
                    <mxGeometry relative="1" as="geometry">
                        <mxPoint x="1563" y="1007.5" as="sourcePoint"/>
                        <mxPoint x="1400" y="1100" as="targetPoint"/>
                    </mxGeometry>
                </mxCell>
                <mxCell id="QBMnjkJRAWfCBT_BCM4e-116" value="1" style="resizable=0;html=1;align=right;verticalAlign=bottom;" parent="QBMnjkJRAWfCBT_BCM4e-115" connectable="0" vertex="1">
                    <mxGeometry x="1" relative="1" as="geometry">
                        <mxPoint x="-2" y="20" as="offset"/>
                    </mxGeometry>
                </mxCell>
                <mxCell id="QBMnjkJRAWfCBT_BCM4e-117" value="" style="endArrow=none;html=1;rounded=0;exitX=0.425;exitY=1.018;exitDx=0;exitDy=0;exitPerimeter=0;entryX=0.431;entryY=0;entryDx=0;entryDy=0;entryPerimeter=0;" parent="1" source="QBMnjkJRAWfCBT_BCM4e-5" target="QBMnjkJRAWfCBT_BCM4e-114" edge="1">
                    <mxGeometry relative="1" as="geometry">
                        <mxPoint x="1161.92" y="987.9000000000003" as="sourcePoint"/>
                        <mxPoint x="1278" y="1085" as="targetPoint"/>
                    </mxGeometry>
                </mxCell>
                <mxCell id="QBMnjkJRAWfCBT_BCM4e-118" value="1" style="resizable=0;html=1;align=right;verticalAlign=bottom;" parent="QBMnjkJRAWfCBT_BCM4e-117" connectable="0" vertex="1">
                    <mxGeometry x="1" relative="1" as="geometry">
                        <mxPoint x="-2" y="20" as="offset"/>
                    </mxGeometry>
                </mxCell>
                <mxCell id="GJZs6UIcXTnjdzDz0qgJ-4" value="materal_group" style="ellipse;whiteSpace=wrap;html=1;" parent="1" vertex="1">
                    <mxGeometry x="1241" y="990" width="90" height="50" as="geometry"/>
                </mxCell>
                <mxCell id="GJZs6UIcXTnjdzDz0qgJ-5" value="" style="endArrow=none;html=1;rounded=0;exitX=0.307;exitY=-0.009;exitDx=0;exitDy=0;exitPerimeter=0;" parent="1" source="QBMnjkJRAWfCBT_BCM4e-108" target="GJZs6UIcXTnjdzDz0qgJ-4" edge="1">
                    <mxGeometry width="50" height="50" relative="1" as="geometry">
                        <mxPoint x="1394.8200000000002" y="1119.98" as="sourcePoint"/>
                        <mxPoint x="1465.88" y="1108.4" as="targetPoint"/>
                    </mxGeometry>
                </mxCell>
                <mxCell id="GJZs6UIcXTnjdzDz0qgJ-6" value="name" style="ellipse;whiteSpace=wrap;html=1;" parent="1" vertex="1">
                    <mxGeometry x="900" y="455" width="80" height="50" as="geometry"/>
                </mxCell>
                <mxCell id="GJZs6UIcXTnjdzDz0qgJ-7" value="" style="endArrow=none;html=1;rounded=0;entryX=0.976;entryY=0.238;entryDx=0;entryDy=0;exitX=0;exitY=0.75;exitDx=0;exitDy=0;entryPerimeter=0;" parent="1" source="QBMnjkJRAWfCBT_BCM4e-4" target="GJZs6UIcXTnjdzDz0qgJ-6" edge="1">
                    <mxGeometry width="50" height="50" relative="1" as="geometry">
                        <mxPoint x="1032" y="420" as="sourcePoint"/>
                        <mxPoint x="968.2842712474619" y="412.6776695296637" as="targetPoint"/>
                    </mxGeometry>
                </mxCell>
                <mxCell id="GJZs6UIcXTnjdzDz0qgJ-8" value="name" style="ellipse;whiteSpace=wrap;html=1;" parent="1" vertex="1">
                    <mxGeometry x="918" y="780" width="80" height="50" as="geometry"/>
                </mxCell>
                <mxCell id="GJZs6UIcXTnjdzDz0qgJ-9" value="" style="endArrow=none;html=1;rounded=0;entryX=0;entryY=0.75;entryDx=0;entryDy=0;exitX=0.925;exitY=0.183;exitDx=0;exitDy=0;exitPerimeter=0;" parent="1" source="GJZs6UIcXTnjdzDz0qgJ-8" target="QBMnjkJRAWfCBT_BCM4e-5" edge="1">
                    <mxGeometry width="50" height="50" relative="1" as="geometry">
                        <mxPoint x="1002.6858562509365" y="727.451333013157" as="sourcePoint"/>
                        <mxPoint x="1033" y="738.4000000000001" as="targetPoint"/>
                    </mxGeometry>
                </mxCell>
                <mxCell id="GJZs6UIcXTnjdzDz0qgJ-10" value="name" style="ellipse;whiteSpace=wrap;html=1;" parent="1" vertex="1">
                    <mxGeometry x="1750" y="720" width="80" height="50" as="geometry"/>
                </mxCell>
                <mxCell id="GJZs6UIcXTnjdzDz0qgJ-12" value="" style="endArrow=none;html=1;rounded=0;exitX=0;exitY=0.5;exitDx=0;exitDy=0;entryX=1;entryY=0.5;entryDx=0;entryDy=0;" parent="1" source="GJZs6UIcXTnjdzDz0qgJ-10" target="QBMnjkJRAWfCBT_BCM4e-28" edge="1">
                    <mxGeometry width="50" height="50" relative="1" as="geometry">
                        <mxPoint x="1711.44" y="701.7" as="sourcePoint"/>
                        <mxPoint x="1695" y="730" as="targetPoint"/>
                    </mxGeometry>
                </mxCell>
                <mxCell id="GJZs6UIcXTnjdzDz0qgJ-13" value="&lt;u&gt;id&lt;/u&gt;" style="ellipse;whiteSpace=wrap;html=1;" parent="1" vertex="1">
                    <mxGeometry x="1355" y="990" width="90" height="50" as="geometry"/>
                </mxCell>
                <mxCell id="GJZs6UIcXTnjdzDz0qgJ-14" value="" style="endArrow=none;html=1;rounded=0;exitX=0.814;exitY=0.033;exitDx=0;exitDy=0;exitPerimeter=0;" parent="1" source="QBMnjkJRAWfCBT_BCM4e-108" edge="1">
                    <mxGeometry width="50" height="50" relative="1" as="geometry">
                        <mxPoint x="1314.226" y="1069.46" as="sourcePoint"/>
                        <mxPoint x="1390" y="1040" as="targetPoint"/>
                        <Array as="points">
                            <mxPoint x="1390" y="1040"/>
                        </Array>
                    </mxGeometry>
                </mxCell>
                <mxCell id="vxyklibOmrfE5yTqk6Oe-1" value="" style="endArrow=none;html=1;rounded=0;entryX=0;entryY=0.25;entryDx=0;entryDy=0;exitX=0.75;exitY=1;exitDx=0;exitDy=0;" parent="1" source="QBMnjkJRAWfCBT_BCM4e-4" edge="1">
                    <mxGeometry relative="1" as="geometry">
                        <mxPoint x="1166.462291870715" y="982.0421155729678" as="sourcePoint"/>
                        <mxPoint x="1278" y="1085" as="targetPoint"/>
                    </mxGeometry>
                </mxCell>
                <mxCell id="vxyklibOmrfE5yTqk6Oe-2" value="1" style="resizable=0;html=1;align=right;verticalAlign=bottom;" parent="vxyklibOmrfE5yTqk6Oe-1" connectable="0" vertex="1">
                    <mxGeometry x="1" relative="1" as="geometry">
                        <mxPoint x="-2" y="20" as="offset"/>
                    </mxGeometry>
                </mxCell>
            </root>
        </mxGraphModel>
    </diagram>
    <diagram id="l0lOfdTl7HdPVn6rvvw3" name="Sida-5">
        <mxGraphModel dx="54" dy="471" grid="1" gridSize="10" guides="1" tooltips="1" connect="1" arrows="1" fold="1" page="1" pageScale="1" pageWidth="827" pageHeight="1169" math="0" shadow="0">
            <root>
                <mxCell id="0"/>
                <mxCell id="1" parent="0"/>
                <mxCell id="02P8emwOBbCn5WHvFWit-2" value="&lt;u&gt;id&lt;/u&gt;" style="ellipse;whiteSpace=wrap;html=1;" parent="1" vertex="1">
                    <mxGeometry x="1340" y="120" width="80" height="50" as="geometry"/>
                </mxCell>
                <mxCell id="02P8emwOBbCn5WHvFWit-3" value="" style="endArrow=none;html=1;rounded=0;entryX=1;entryY=1;entryDx=0;entryDy=0;exitX=0.456;exitY=-0.008;exitDx=0;exitDy=0;exitPerimeter=0;" parent="1" target="02P8emwOBbCn5WHvFWit-2" edge="1">
                    <mxGeometry width="50" height="50" relative="1" as="geometry">
                        <mxPoint x="1421.528" y="179.51999999999998" as="sourcePoint"/>
                        <mxPoint x="1145" y="330" as="targetPoint"/>
                    </mxGeometry>
                </mxCell>
                <mxCell id="02P8emwOBbCn5WHvFWit-4" value="&lt;div&gt;Node&lt;br&gt;&lt;/div&gt;" style="rounded=0;whiteSpace=wrap;html=1;" parent="1" vertex="1">
                    <mxGeometry x="1362.25" y="379.35" width="118" height="60" as="geometry"/>
                </mxCell>
                <mxCell id="02P8emwOBbCn5WHvFWit-5" value="&lt;div&gt;Partition&lt;/div&gt;" style="rounded=0;whiteSpace=wrap;html=1;" parent="1" vertex="1">
                    <mxGeometry x="1170" y="710" width="120" height="60" as="geometry"/>
                </mxCell>
                <mxCell id="02P8emwOBbCn5WHvFWit-15" value="&lt;u&gt;id&lt;/u&gt;" style="ellipse;whiteSpace=wrap;html=1;" parent="1" vertex="1">
                    <mxGeometry x="1337.25" y="329.35" width="65" height="40" as="geometry"/>
                </mxCell>
                <mxCell id="02P8emwOBbCn5WHvFWit-18" value="&lt;u&gt;id&lt;/u&gt;" style="ellipse;whiteSpace=wrap;html=1;" parent="1" vertex="1">
                    <mxGeometry x="1070" y="780" width="70" height="45" as="geometry"/>
                </mxCell>
                <mxCell id="02P8emwOBbCn5WHvFWit-19" value="" style="endArrow=none;html=1;rounded=0;" parent="1" source="02P8emwOBbCn5WHvFWit-18" target="02P8emwOBbCn5WHvFWit-5" edge="1">
                    <mxGeometry width="50" height="50" relative="1" as="geometry">
                        <mxPoint x="1283.5" y="510" as="sourcePoint"/>
                        <mxPoint x="1274" y="735" as="targetPoint"/>
                    </mxGeometry>
                </mxCell>
                <mxCell id="02P8emwOBbCn5WHvFWit-25" value="&lt;h1&gt;EER Diagram&lt;/h1&gt;" style="text;html=1;strokeColor=none;fillColor=none;spacing=5;spacingTop=-20;whiteSpace=wrap;overflow=hidden;rounded=0;" parent="1" vertex="1">
                    <mxGeometry x="1135" y="70" width="190" height="60" as="geometry"/>
                </mxCell>
                <mxCell id="02P8emwOBbCn5WHvFWit-87" value="name" style="ellipse;whiteSpace=wrap;html=1;" parent="1" vertex="1">
                    <mxGeometry x="1275.25" y="369.35" width="62" height="40" as="geometry"/>
                </mxCell>
                <mxCell id="02P8emwOBbCn5WHvFWit-89" value="name" style="ellipse;whiteSpace=wrap;html=1;" parent="1" vertex="1">
                    <mxGeometry x="1165" y="810" width="70" height="40" as="geometry"/>
                </mxCell>
                <mxCell id="02P8emwOBbCn5WHvFWit-90" value="" style="endArrow=none;html=1;rounded=0;exitX=0.643;exitY=0.045;exitDx=0;exitDy=0;exitPerimeter=0;" parent="1" source="02P8emwOBbCn5WHvFWit-89" target="02P8emwOBbCn5WHvFWit-5" edge="1">
                    <mxGeometry width="50" height="50" relative="1" as="geometry">
                        <mxPoint x="937.6858562509365" y="797.451333013157" as="sourcePoint"/>
                        <mxPoint x="968" y="808.4000000000001" as="targetPoint"/>
                    </mxGeometry>
                </mxCell>
                <mxCell id="02P8emwOBbCn5WHvFWit-97" value="Project" style="rounded=0;whiteSpace=wrap;html=1;" parent="1" vertex="1">
                    <mxGeometry x="1365" y="180" width="118" height="60" as="geometry"/>
                </mxCell>
                <mxCell id="02P8emwOBbCn5WHvFWit-100" value="has" style="rhombus;whiteSpace=wrap;html=1;" parent="1" vertex="1">
                    <mxGeometry x="1400.5" y="299.35" width="45" height="30" as="geometry"/>
                </mxCell>
                <mxCell id="02P8emwOBbCn5WHvFWit-122" value="" style="endArrow=none;html=1;rounded=0;entryX=0.5;entryY=1;entryDx=0;entryDy=0;exitX=0.5;exitY=0;exitDx=0;exitDy=0;" parent="1" source="02P8emwOBbCn5WHvFWit-100" target="02P8emwOBbCn5WHvFWit-97" edge="1">
                    <mxGeometry relative="1" as="geometry">
                        <mxPoint x="1090" y="430" as="sourcePoint"/>
                        <mxPoint x="1250" y="430" as="targetPoint"/>
                    </mxGeometry>
                </mxCell>
                <mxCell id="02P8emwOBbCn5WHvFWit-123" value="1" style="resizable=0;html=1;align=right;verticalAlign=bottom;" parent="02P8emwOBbCn5WHvFWit-122" connectable="0" vertex="1">
                    <mxGeometry x="1" relative="1" as="geometry"/>
                </mxCell>
                <mxCell id="02P8emwOBbCn5WHvFWit-124" value="" style="endArrow=none;html=1;rounded=0;entryX=0.5;entryY=0;entryDx=0;entryDy=0;exitX=0.5;exitY=1;exitDx=0;exitDy=0;" parent="1" source="02P8emwOBbCn5WHvFWit-100" target="02P8emwOBbCn5WHvFWit-4" edge="1">
                    <mxGeometry relative="1" as="geometry">
                        <mxPoint x="1087.25" y="439.35" as="sourcePoint"/>
                        <mxPoint x="1247.25" y="439.35" as="targetPoint"/>
                    </mxGeometry>
                </mxCell>
                <mxCell id="02P8emwOBbCn5WHvFWit-125" value="N" style="resizable=0;html=1;align=right;verticalAlign=bottom;" parent="02P8emwOBbCn5WHvFWit-124" connectable="0" vertex="1">
                    <mxGeometry x="1" relative="1" as="geometry"/>
                </mxCell>
                <mxCell id="02P8emwOBbCn5WHvFWit-126" value="" style="endArrow=none;html=1;rounded=0;exitX=0.25;exitY=0;exitDx=0;exitDy=0;" parent="1" source="02P8emwOBbCn5WHvFWit-4" target="02P8emwOBbCn5WHvFWit-15" edge="1">
                    <mxGeometry width="50" height="50" relative="1" as="geometry">
                        <mxPoint x="1428.7780000000002" y="228.8700000000001" as="sourcePoint"/>
                        <mxPoint x="1377.25" y="359.35" as="targetPoint"/>
                    </mxGeometry>
                </mxCell>
                <mxCell id="02P8emwOBbCn5WHvFWit-127" value="" style="endArrow=none;html=1;rounded=0;exitX=0.007;exitY=0.603;exitDx=0;exitDy=0;exitPerimeter=0;" parent="1" source="02P8emwOBbCn5WHvFWit-4" target="02P8emwOBbCn5WHvFWit-87" edge="1">
                    <mxGeometry width="50" height="50" relative="1" as="geometry">
                        <mxPoint x="1371.6599999999999" y="407.27" as="sourcePoint"/>
                        <mxPoint x="1350.6319707894545" y="391.96639566242015" as="targetPoint"/>
                    </mxGeometry>
                </mxCell>
                <mxCell id="02P8emwOBbCn5WHvFWit-132" value="Application" style="rounded=0;whiteSpace=wrap;html=1;" parent="1" vertex="1">
                    <mxGeometry x="1540" y="710" width="120" height="60" as="geometry"/>
                </mxCell>
                <mxCell id="02P8emwOBbCn5WHvFWit-133" value="has" style="rhombus;whiteSpace=wrap;html=1;" parent="1" vertex="1">
                    <mxGeometry x="1395" y="725" width="45" height="30" as="geometry"/>
                </mxCell>
                <mxCell id="02P8emwOBbCn5WHvFWit-139" value="" style="endArrow=none;html=1;rounded=0;exitX=0;exitY=0.5;exitDx=0;exitDy=0;entryX=1;entryY=0.5;entryDx=0;entryDy=0;" parent="1" source="02P8emwOBbCn5WHvFWit-133" target="02P8emwOBbCn5WHvFWit-5" edge="1">
                    <mxGeometry relative="1" as="geometry">
                        <mxPoint x="1320.5" y="585" as="sourcePoint"/>
                        <mxPoint x="1330" y="670" as="targetPoint"/>
                    </mxGeometry>
                </mxCell>
                <mxCell id="02P8emwOBbCn5WHvFWit-140" value="1" style="resizable=0;html=1;align=right;verticalAlign=bottom;" parent="02P8emwOBbCn5WHvFWit-139" connectable="0" vertex="1">
                    <mxGeometry x="1" relative="1" as="geometry"/>
                </mxCell>
                <mxCell id="02P8emwOBbCn5WHvFWit-142" value="" style="endArrow=none;html=1;rounded=0;entryX=0;entryY=0.5;entryDx=0;entryDy=0;exitX=1;exitY=0.5;exitDx=0;exitDy=0;" parent="1" source="02P8emwOBbCn5WHvFWit-133" target="02P8emwOBbCn5WHvFWit-132" edge="1">
                    <mxGeometry relative="1" as="geometry">
                        <mxPoint x="1331" y="760" as="sourcePoint"/>
                        <mxPoint x="1491" y="760" as="targetPoint"/>
                    </mxGeometry>
                </mxCell>
                <mxCell id="02P8emwOBbCn5WHvFWit-143" value="N" style="resizable=0;html=1;align=right;verticalAlign=bottom;" parent="02P8emwOBbCn5WHvFWit-142" connectable="0" vertex="1">
                    <mxGeometry x="1" relative="1" as="geometry"/>
                </mxCell>
                <mxCell id="02P8emwOBbCn5WHvFWit-144" value="&lt;u&gt;id&lt;/u&gt;" style="ellipse;whiteSpace=wrap;html=1;" parent="1" vertex="1">
                    <mxGeometry x="1717" y="670" width="70" height="40" as="geometry"/>
                </mxCell>
                <mxCell id="02P8emwOBbCn5WHvFWit-145" value="name" style="ellipse;whiteSpace=wrap;html=1;" parent="1" vertex="1">
                    <mxGeometry x="1737" y="740" width="70" height="40" as="geometry"/>
                </mxCell>
                <mxCell id="02P8emwOBbCn5WHvFWit-146" value="" style="endArrow=none;html=1;rounded=0;exitX=0;exitY=0.5;exitDx=0;exitDy=0;entryX=1.005;entryY=0.159;entryDx=0;entryDy=0;entryPerimeter=0;" parent="1" source="02P8emwOBbCn5WHvFWit-144" target="02P8emwOBbCn5WHvFWit-132" edge="1">
                    <mxGeometry width="50" height="50" relative="1" as="geometry">
                        <mxPoint x="1241.1401535549082" y="703.027163856478" as="sourcePoint"/>
                        <mxPoint x="1302" y="726.7741935483871" as="targetPoint"/>
                    </mxGeometry>
                </mxCell>
                <mxCell id="02P8emwOBbCn5WHvFWit-147" value="" style="endArrow=none;html=1;rounded=0;exitX=0;exitY=0;exitDx=0;exitDy=0;" parent="1" source="02P8emwOBbCn5WHvFWit-145" target="02P8emwOBbCn5WHvFWit-132" edge="1">
                    <mxGeometry width="50" height="50" relative="1" as="geometry">
                        <mxPoint x="1241.1401535549082" y="703.027163856478" as="sourcePoint"/>
                        <mxPoint x="1302" y="726.7741935483871" as="targetPoint"/>
                    </mxGeometry>
                </mxCell>
                <mxCell id="02P8emwOBbCn5WHvFWit-150" value="Connection" style="rounded=0;whiteSpace=wrap;html=1;" parent="1" vertex="1">
                    <mxGeometry x="1539" y="860" width="120" height="60" as="geometry"/>
                </mxCell>
                <mxCell id="02P8emwOBbCn5WHvFWit-151" value="has" style="rhombus;whiteSpace=wrap;html=1;" parent="1" vertex="1">
                    <mxGeometry x="1575.5" y="795" width="47" height="30" as="geometry"/>
                </mxCell>
                <mxCell id="02P8emwOBbCn5WHvFWit-152" value="" style="endArrow=none;html=1;rounded=0;exitX=0.5;exitY=0;exitDx=0;exitDy=0;entryX=0.5;entryY=1;entryDx=0;entryDy=0;" parent="1" source="02P8emwOBbCn5WHvFWit-151" target="02P8emwOBbCn5WHvFWit-132" edge="1">
                    <mxGeometry relative="1" as="geometry">
                        <mxPoint x="1405" y="680" as="sourcePoint"/>
                        <mxPoint x="1365" y="680" as="targetPoint"/>
                    </mxGeometry>
                </mxCell>
                <mxCell id="02P8emwOBbCn5WHvFWit-153" value="1" style="resizable=0;html=1;align=right;verticalAlign=bottom;" parent="02P8emwOBbCn5WHvFWit-152" connectable="0" vertex="1">
                    <mxGeometry x="1" relative="1" as="geometry"/>
                </mxCell>
                <mxCell id="02P8emwOBbCn5WHvFWit-154" value="" style="endArrow=none;html=1;rounded=0;exitX=0.5;exitY=1;exitDx=0;exitDy=0;entryX=0.5;entryY=0;entryDx=0;entryDy=0;" parent="1" source="02P8emwOBbCn5WHvFWit-151" target="02P8emwOBbCn5WHvFWit-150" edge="1">
                    <mxGeometry relative="1" as="geometry">
                        <mxPoint x="1608" y="800" as="sourcePoint"/>
                        <mxPoint x="1609.0000000000002" y="770" as="targetPoint"/>
                    </mxGeometry>
                </mxCell>
                <mxCell id="02P8emwOBbCn5WHvFWit-155" value="1" style="resizable=0;html=1;align=right;verticalAlign=bottom;" parent="02P8emwOBbCn5WHvFWit-154" connectable="0" vertex="1">
                    <mxGeometry x="1" relative="1" as="geometry"/>
                </mxCell>
                <mxCell id="02P8emwOBbCn5WHvFWit-156" value="provider" style="ellipse;whiteSpace=wrap;html=1;" parent="1" vertex="1">
                    <mxGeometry x="1686" y="910" width="70" height="40" as="geometry"/>
                </mxCell>
                <mxCell id="02P8emwOBbCn5WHvFWit-157" value="requirer" style="ellipse;whiteSpace=wrap;html=1;" parent="1" vertex="1">
                    <mxGeometry x="1596" y="970" width="70" height="40" as="geometry"/>
                </mxCell>
                <mxCell id="02P8emwOBbCn5WHvFWit-158" value="&lt;u&gt;id&lt;/u&gt;" style="ellipse;whiteSpace=wrap;html=1;" parent="1" vertex="1">
                    <mxGeometry x="1490" y="970" width="66" height="40" as="geometry"/>
                </mxCell>
                <mxCell id="02P8emwOBbCn5WHvFWit-159" value="" style="endArrow=none;html=1;rounded=0;exitX=0;exitY=0;exitDx=0;exitDy=0;entryX=1;entryY=0.5;entryDx=0;entryDy=0;" parent="1" source="02P8emwOBbCn5WHvFWit-156" target="02P8emwOBbCn5WHvFWit-150" edge="1">
                    <mxGeometry width="50" height="50" relative="1" as="geometry">
                        <mxPoint x="1757.4973272220727" y="747.4598936751217" as="sourcePoint"/>
                        <mxPoint x="1669" y="743.0141527048359" as="targetPoint"/>
                    </mxGeometry>
                </mxCell>
                <mxCell id="02P8emwOBbCn5WHvFWit-160" value="" style="endArrow=none;html=1;rounded=0;exitX=0.5;exitY=0;exitDx=0;exitDy=0;entryX=0.75;entryY=1;entryDx=0;entryDy=0;" parent="1" source="02P8emwOBbCn5WHvFWit-157" target="02P8emwOBbCn5WHvFWit-150" edge="1">
                    <mxGeometry width="50" height="50" relative="1" as="geometry">
                        <mxPoint x="1707.6431122413146" y="927.3678326115867" as="sourcePoint"/>
                        <mxPoint x="1669" y="910.0000000000002" as="targetPoint"/>
                    </mxGeometry>
                </mxCell>
                <mxCell id="02P8emwOBbCn5WHvFWit-161" value="" style="endArrow=none;html=1;rounded=0;exitX=0.756;exitY=0.074;exitDx=0;exitDy=0;entryX=0.198;entryY=1.026;entryDx=0;entryDy=0;entryPerimeter=0;exitPerimeter=0;" parent="1" source="02P8emwOBbCn5WHvFWit-158" target="02P8emwOBbCn5WHvFWit-150" edge="1">
                    <mxGeometry width="50" height="50" relative="1" as="geometry">
                        <mxPoint x="1569" y="979.9999999999998" as="sourcePoint"/>
                        <mxPoint x="1562" y="940.0000000000002" as="targetPoint"/>
                    </mxGeometry>
                </mxCell>
                <mxCell id="1PBIMFL0EuSPwlPbAL_p-4" value="CPU" style="rounded=0;whiteSpace=wrap;html=1;" parent="1" vertex="1">
                    <mxGeometry x="1365" y="555" width="118" height="60" as="geometry"/>
                </mxCell>
                <mxCell id="1PBIMFL0EuSPwlPbAL_p-5" value="type" style="ellipse;whiteSpace=wrap;html=1;" parent="1" vertex="1">
                    <mxGeometry x="1489" y="500" width="62" height="40" as="geometry"/>
                </mxCell>
                <mxCell id="1PBIMFL0EuSPwlPbAL_p-6" value="" style="endArrow=none;html=1;rounded=0;entryX=0;entryY=1;entryDx=0;entryDy=0;exitX=0.75;exitY=0;exitDx=0;exitDy=0;" parent="1" source="1PBIMFL0EuSPwlPbAL_p-4" target="1PBIMFL0EuSPwlPbAL_p-5" edge="1">
                    <mxGeometry width="50" height="50" relative="1" as="geometry">
                        <mxPoint x="1490" y="570" as="sourcePoint"/>
                        <mxPoint x="1520" y="560" as="targetPoint"/>
                    </mxGeometry>
                </mxCell>
                <mxCell id="1PBIMFL0EuSPwlPbAL_p-13" value="has" style="rhombus;whiteSpace=wrap;html=1;" parent="1" vertex="1">
                    <mxGeometry x="1400.5" y="460" width="47" height="30" as="geometry"/>
                </mxCell>
                <mxCell id="1PBIMFL0EuSPwlPbAL_p-14" value="" style="endArrow=none;html=1;rounded=0;exitX=0.5;exitY=0;exitDx=0;exitDy=0;" parent="1" source="1PBIMFL0EuSPwlPbAL_p-13" edge="1">
                    <mxGeometry relative="1" as="geometry">
                        <mxPoint x="1420" y="460" as="sourcePoint"/>
                        <mxPoint x="1424" y="440" as="targetPoint"/>
                    </mxGeometry>
                </mxCell>
                <mxCell id="1PBIMFL0EuSPwlPbAL_p-15" value="1" style="resizable=0;html=1;align=right;verticalAlign=bottom;" parent="1PBIMFL0EuSPwlPbAL_p-14" connectable="0" vertex="1">
                    <mxGeometry x="1" relative="1" as="geometry"/>
                </mxCell>
                <mxCell id="1PBIMFL0EuSPwlPbAL_p-16" value="" style="shape=link;html=1;rounded=0;entryX=0.5;entryY=0;entryDx=0;entryDy=0;exitX=0.5;exitY=1;exitDx=0;exitDy=0;" parent="1" source="1PBIMFL0EuSPwlPbAL_p-13" target="1PBIMFL0EuSPwlPbAL_p-4" edge="1">
                    <mxGeometry relative="1" as="geometry">
                        <mxPoint x="1240" y="638" as="sourcePoint"/>
                        <mxPoint x="1240" y="720" as="targetPoint"/>
                    </mxGeometry>
                </mxCell>
                <mxCell id="1PBIMFL0EuSPwlPbAL_p-17" value="N" style="resizable=0;html=1;align=right;verticalAlign=bottom;" parent="1PBIMFL0EuSPwlPbAL_p-16" connectable="0" vertex="1">
                    <mxGeometry x="1" relative="1" as="geometry"/>
                </mxCell>
                <mxCell id="1PBIMFL0EuSPwlPbAL_p-23" value="excute" style="rhombus;whiteSpace=wrap;html=1;" parent="1" vertex="1">
                    <mxGeometry x="1490" y="640" width="50" height="30" as="geometry"/>
                </mxCell>
                <mxCell id="1PBIMFL0EuSPwlPbAL_p-24" value="" style="endArrow=none;html=1;rounded=0;exitX=0;exitY=0;exitDx=0;exitDy=0;entryX=1;entryY=1;entryDx=0;entryDy=0;" parent="1" source="1PBIMFL0EuSPwlPbAL_p-23" target="1PBIMFL0EuSPwlPbAL_p-4" edge="1">
                    <mxGeometry relative="1" as="geometry">
                        <mxPoint x="1539.25" y="563.5" as="sourcePoint"/>
                        <mxPoint x="1557.8439999999996" y="551.6800000000001" as="targetPoint"/>
                    </mxGeometry>
                </mxCell>
                <mxCell id="1PBIMFL0EuSPwlPbAL_p-25" value="1" style="resizable=0;html=1;align=right;verticalAlign=bottom;" parent="1PBIMFL0EuSPwlPbAL_p-24" connectable="0" vertex="1">
                    <mxGeometry x="1" relative="1" as="geometry"/>
                </mxCell>
                <mxCell id="1PBIMFL0EuSPwlPbAL_p-26" value="excute" style="rhombus;whiteSpace=wrap;html=1;" parent="1" vertex="1">
                    <mxGeometry x="1295.25" y="650" width="50" height="30" as="geometry"/>
                </mxCell>
                <mxCell id="1PBIMFL0EuSPwlPbAL_p-27" value="" style="endArrow=none;html=1;rounded=0;exitX=1;exitY=0;exitDx=0;exitDy=0;entryX=0;entryY=1;entryDx=0;entryDy=0;" parent="1" source="1PBIMFL0EuSPwlPbAL_p-26" target="1PBIMFL0EuSPwlPbAL_p-4" edge="1">
                    <mxGeometry relative="1" as="geometry">
                        <mxPoint x="1512.5" y="667.5" as="sourcePoint"/>
                        <mxPoint x="1486.4999999999998" y="646" as="targetPoint"/>
                    </mxGeometry>
                </mxCell>
                <mxCell id="1PBIMFL0EuSPwlPbAL_p-28" value="1" style="resizable=0;html=1;align=right;verticalAlign=bottom;" parent="1PBIMFL0EuSPwlPbAL_p-27" connectable="0" vertex="1">
                    <mxGeometry x="1" relative="1" as="geometry"/>
                </mxCell>
                <mxCell id="1PBIMFL0EuSPwlPbAL_p-29" value="" style="shape=link;html=1;rounded=0;entryX=0.079;entryY=0.014;entryDx=0;entryDy=0;exitX=0.623;exitY=0.917;exitDx=0;exitDy=0;entryPerimeter=0;exitPerimeter=0;" parent="1" source="1PBIMFL0EuSPwlPbAL_p-23" target="02P8emwOBbCn5WHvFWit-132" edge="1">
                    <mxGeometry relative="1" as="geometry">
                        <mxPoint x="1511.1440000000002" y="576.6700000000001" as="sourcePoint"/>
                        <mxPoint x="1486.146" y="594.1600000000001" as="targetPoint"/>
                    </mxGeometry>
                </mxCell>
                <mxCell id="1PBIMFL0EuSPwlPbAL_p-30" value="N" style="resizable=0;html=1;align=right;verticalAlign=bottom;" parent="1PBIMFL0EuSPwlPbAL_p-29" connectable="0" vertex="1">
                    <mxGeometry x="1" relative="1" as="geometry"/>
                </mxCell>
                <mxCell id="1PBIMFL0EuSPwlPbAL_p-31" value="" style="shape=link;html=1;rounded=0;entryX=0.926;entryY=-0.015;entryDx=0;entryDy=0;exitX=0;exitY=1;exitDx=0;exitDy=0;entryPerimeter=0;" parent="1" source="1PBIMFL0EuSPwlPbAL_p-26" target="02P8emwOBbCn5WHvFWit-5" edge="1">
                    <mxGeometry relative="1" as="geometry">
                        <mxPoint x="1345.2499999999998" y="578.5" as="sourcePoint"/>
                        <mxPoint x="1366.1399999999999" y="591.6400000000001" as="targetPoint"/>
                    </mxGeometry>
                </mxCell>
                <mxCell id="1PBIMFL0EuSPwlPbAL_p-32" value="N" style="resizable=0;html=1;align=right;verticalAlign=bottom;" parent="1PBIMFL0EuSPwlPbAL_p-31" connectable="0" vertex="1">
                    <mxGeometry x="1" relative="1" as="geometry"/>
                </mxCell>
                <mxCell id="1PBIMFL0EuSPwlPbAL_p-34" value="platform" style="ellipse;whiteSpace=wrap;html=1;" parent="1" vertex="1">
                    <mxGeometry x="1448.75" y="319.35" width="62" height="40" as="geometry"/>
                </mxCell>
                <mxCell id="1PBIMFL0EuSPwlPbAL_p-35" value="" style="endArrow=none;html=1;rounded=0;exitX=0;exitY=1;exitDx=0;exitDy=0;" parent="1" source="1PBIMFL0EuSPwlPbAL_p-34" target="02P8emwOBbCn5WHvFWit-4" edge="1">
                    <mxGeometry width="50" height="50" relative="1" as="geometry">
                        <mxPoint x="1371.6599999999999" y="397.2700000000001" as="sourcePoint"/>
                        <mxPoint x="1337.552138222343" y="383.60133638896434" as="targetPoint"/>
                    </mxGeometry>
                </mxCell>
                <mxCell id="1PBIMFL0EuSPwlPbAL_p-36" value="load_set_type" style="ellipse;whiteSpace=wrap;html=1;" parent="1" vertex="1">
                    <mxGeometry x="1496.75" y="399.35" width="90" height="40" as="geometry"/>
                </mxCell>
                <mxCell id="1PBIMFL0EuSPwlPbAL_p-37" value="" style="endArrow=none;html=1;rounded=0;exitX=0;exitY=0.5;exitDx=0;exitDy=0;entryX=1;entryY=0.5;entryDx=0;entryDy=0;" parent="1" source="1PBIMFL0EuSPwlPbAL_p-36" target="02P8emwOBbCn5WHvFWit-4" edge="1">
                    <mxGeometry width="50" height="50" relative="1" as="geometry">
                        <mxPoint x="1517.25" y="399.35" as="sourcePoint"/>
                        <mxPoint x="1481.1320145081866" y="389.35" as="targetPoint"/>
                    </mxGeometry>
                </mxCell>
                <mxCell id="1PBIMFL0EuSPwlPbAL_p-38" value="redundant" style="ellipse;whiteSpace=wrap;html=1;" parent="1" vertex="1">
                    <mxGeometry x="1257.25" y="319.35" width="70" height="40" as="geometry"/>
                </mxCell>
                <mxCell id="1PBIMFL0EuSPwlPbAL_p-39" value="" style="endArrow=none;html=1;rounded=0;entryX=1;entryY=1;entryDx=0;entryDy=0;exitX=0;exitY=0.25;exitDx=0;exitDy=0;" parent="1" source="02P8emwOBbCn5WHvFWit-4" target="1PBIMFL0EuSPwlPbAL_p-38" edge="1">
                    <mxGeometry width="50" height="50" relative="1" as="geometry">
                        <mxPoint x="1182.118" y="519.83" as="sourcePoint"/>
                        <mxPoint x="1335.0179999999998" y="433.39" as="targetPoint"/>
                    </mxGeometry>
                </mxCell>
                <mxCell id="1PBIMFL0EuSPwlPbAL_p-40" value="sync_loss" style="ellipse;whiteSpace=wrap;html=1;" parent="1" vertex="1">
                    <mxGeometry x="1520.75" y="339.35" width="70" height="40" as="geometry"/>
                </mxCell>
                <mxCell id="1PBIMFL0EuSPwlPbAL_p-41" value="" style="endArrow=none;html=1;rounded=0;entryX=0;entryY=1;entryDx=0;entryDy=0;exitX=1;exitY=0.25;exitDx=0;exitDy=0;" parent="1" source="02P8emwOBbCn5WHvFWit-4" target="1PBIMFL0EuSPwlPbAL_p-40" edge="1">
                    <mxGeometry width="50" height="50" relative="1" as="geometry">
                        <mxPoint x="1167.25" y="549.35" as="sourcePoint"/>
                        <mxPoint x="1126.894092915924" y="483.5516806634138" as="targetPoint"/>
                    </mxGeometry>
                </mxCell>
                <mxCell id="1PBIMFL0EuSPwlPbAL_p-42" value="partition_id" style="ellipse;whiteSpace=wrap;html=1;" parent="1" vertex="1">
                    <mxGeometry x="1255" y="800" width="70" height="40" as="geometry"/>
                </mxCell>
                <mxCell id="1PBIMFL0EuSPwlPbAL_p-43" value="" style="endArrow=none;html=1;rounded=0;entryX=0.75;entryY=1;entryDx=0;entryDy=0;" parent="1" source="1PBIMFL0EuSPwlPbAL_p-42" target="02P8emwOBbCn5WHvFWit-5" edge="1">
                    <mxGeometry width="50" height="50" relative="1" as="geometry">
                        <mxPoint x="1220.0099999999998" y="821.8" as="sourcePoint"/>
                        <mxPoint x="1231.6476323119775" y="780" as="targetPoint"/>
                    </mxGeometry>
                </mxCell>
                <mxCell id="1PBIMFL0EuSPwlPbAL_p-44" value="is_ltm" style="ellipse;whiteSpace=wrap;html=1;" parent="1" vertex="1">
                    <mxGeometry x="1100" y="670" width="70" height="40" as="geometry"/>
                </mxCell>
                <mxCell id="1PBIMFL0EuSPwlPbAL_p-45" value="" style="endArrow=none;html=1;rounded=0;exitX=0;exitY=0;exitDx=0;exitDy=0;entryX=1;entryY=1;entryDx=0;entryDy=0;" parent="1" source="02P8emwOBbCn5WHvFWit-5" target="1PBIMFL0EuSPwlPbAL_p-44" edge="1">
                    <mxGeometry width="50" height="50" relative="1" as="geometry">
                        <mxPoint x="1220.0099999999998" y="821.8" as="sourcePoint"/>
                        <mxPoint x="1231.6476323119775" y="780" as="targetPoint"/>
                    </mxGeometry>
                </mxCell>
                <mxCell id="1PBIMFL0EuSPwlPbAL_p-46" value="fixed_start" style="ellipse;whiteSpace=wrap;html=1;" parent="1" vertex="1">
                    <mxGeometry x="1040" y="710" width="70" height="40" as="geometry"/>
                </mxCell>
                <mxCell id="1PBIMFL0EuSPwlPbAL_p-47" value="" style="endArrow=none;html=1;rounded=0;entryX=1;entryY=0.646;entryDx=0;entryDy=0;entryPerimeter=0;" parent="1" source="02P8emwOBbCn5WHvFWit-5" target="1PBIMFL0EuSPwlPbAL_p-46" edge="1">
                    <mxGeometry width="50" height="50" relative="1" as="geometry">
                        <mxPoint x="1179.9999999999998" y="720" as="sourcePoint"/>
                        <mxPoint x="1149.563822964134" y="699.2470173191978" as="targetPoint"/>
                    </mxGeometry>
                </mxCell>
                <mxCell id="PzccEEGeFf-EflBb7r6Q-2" value="iop_ref" style="ellipse;whiteSpace=wrap;html=1;" parent="1" vertex="1">
                    <mxGeometry x="1520.75" y="590" width="62" height="40" as="geometry"/>
                </mxCell>
                <mxCell id="PzccEEGeFf-EflBb7r6Q-3" value="unit_id" style="ellipse;whiteSpace=wrap;html=1;" parent="1" vertex="1">
                    <mxGeometry x="1325" y="490" width="62" height="40" as="geometry"/>
                </mxCell>
                <mxCell id="PzccEEGeFf-EflBb7r6Q-4" value="name" style="ellipse;whiteSpace=wrap;html=1;" parent="1" vertex="1">
                    <mxGeometry x="1275.25" y="590" width="62" height="40" as="geometry"/>
                </mxCell>
                <mxCell id="PzccEEGeFf-EflBb7r6Q-5" value="" style="endArrow=none;html=1;rounded=0;entryX=1;entryY=1;entryDx=0;entryDy=0;exitX=0.214;exitY=0.006;exitDx=0;exitDy=0;exitPerimeter=0;" parent="1" source="1PBIMFL0EuSPwlPbAL_p-4" target="PzccEEGeFf-EflBb7r6Q-3" edge="1">
                    <mxGeometry width="50" height="50" relative="1" as="geometry">
                        <mxPoint x="1493" y="595" as="sourcePoint"/>
                        <mxPoint x="1523.5" y="560" as="targetPoint"/>
                    </mxGeometry>
                </mxCell>
                <mxCell id="PzccEEGeFf-EflBb7r6Q-6" value="" style="endArrow=none;html=1;rounded=0;entryX=0;entryY=0.5;entryDx=0;entryDy=0;exitX=1;exitY=0.75;exitDx=0;exitDy=0;" parent="1" source="1PBIMFL0EuSPwlPbAL_p-4" target="PzccEEGeFf-EflBb7r6Q-2" edge="1">
                    <mxGeometry width="50" height="50" relative="1" as="geometry">
                        <mxPoint x="1493" y="595" as="sourcePoint"/>
                        <mxPoint x="1523.5" y="560" as="targetPoint"/>
                    </mxGeometry>
                </mxCell>
                <mxCell id="PzccEEGeFf-EflBb7r6Q-7" value="" style="endArrow=none;html=1;rounded=0;entryX=1;entryY=0.5;entryDx=0;entryDy=0;exitX=0;exitY=0.75;exitDx=0;exitDy=0;" parent="1" source="1PBIMFL0EuSPwlPbAL_p-4" target="PzccEEGeFf-EflBb7r6Q-4" edge="1">
                    <mxGeometry width="50" height="50" relative="1" as="geometry">
                        <mxPoint x="1375.944" y="572.98" as="sourcePoint"/>
                        <mxPoint x="1350.920310216783" y="564.1421356237311" as="targetPoint"/>
                    </mxGeometry>
                </mxCell>
                <mxCell id="PzccEEGeFf-EflBb7r6Q-8" value="accs_sync_master" style="ellipse;whiteSpace=wrap;html=1;" parent="1" vertex="1">
                    <mxGeometry x="1539" y="540" width="115" height="40" as="geometry"/>
                </mxCell>
                <mxCell id="PzccEEGeFf-EflBb7r6Q-9" value="" style="endArrow=none;html=1;rounded=0;entryX=0.02;entryY=0.66;entryDx=0;entryDy=0;exitX=1;exitY=0.5;exitDx=0;exitDy=0;entryPerimeter=0;" parent="1" source="1PBIMFL0EuSPwlPbAL_p-4" target="PzccEEGeFf-EflBb7r6Q-8" edge="1">
                    <mxGeometry width="50" height="50" relative="1" as="geometry">
                        <mxPoint x="1375.944" y="572.98" as="sourcePoint"/>
                        <mxPoint x="1350.920310216783" y="564.1421356237311" as="targetPoint"/>
                    </mxGeometry>
                </mxCell>
                <mxCell id="PzccEEGeFf-EflBb7r6Q-11" value="name" style="ellipse;whiteSpace=wrap;html=1;" parent="1" vertex="1">
                    <mxGeometry x="1510.75" y="180.00000000000003" width="62" height="40" as="geometry"/>
                </mxCell>
                <mxCell id="PzccEEGeFf-EflBb7r6Q-12" value="" style="endArrow=none;html=1;rounded=0;entryX=0;entryY=0.5;entryDx=0;entryDy=0;exitX=1;exitY=0.5;exitDx=0;exitDy=0;" parent="1" source="02P8emwOBbCn5WHvFWit-97" target="PzccEEGeFf-EflBb7r6Q-11" edge="1">
                    <mxGeometry width="50" height="50" relative="1" as="geometry">
                        <mxPoint x="1431.528" y="189.51999999999998" as="sourcePoint"/>
                        <mxPoint x="1418.3819707894545" y="172.61639566242013" as="targetPoint"/>
                    </mxGeometry>
                </mxCell>
                <mxCell id="PzccEEGeFf-EflBb7r6Q-14" value="domain_border" style="ellipse;whiteSpace=wrap;html=1;" parent="1" vertex="1">
                    <mxGeometry x="1257.25" y="530" width="88" height="40" as="geometry"/>
                </mxCell>
                <mxCell id="PzccEEGeFf-EflBb7r6Q-15" value="" style="endArrow=none;html=1;rounded=0;" parent="1" source="1PBIMFL0EuSPwlPbAL_p-4" target="PzccEEGeFf-EflBb7r6Q-14" edge="1">
                    <mxGeometry width="50" height="50" relative="1" as="geometry">
                        <mxPoint x="1463.4999999999998" y="565" as="sourcePoint"/>
                        <mxPoint x="1508.3150388669542" y="544.2923607467803" as="targetPoint"/>
                    </mxGeometry>
                </mxCell>
                <mxCell id="PzccEEGeFf-EflBb7r6Q-16" value="&amp;nbsp;" style="text;whiteSpace=wrap;html=1;" parent="1" vertex="1">
                    <mxGeometry x="1460" y="780" width="40" height="40" as="geometry"/>
                </mxCell>
            </root>
        </mxGraphModel>
    </diagram>
</mxfile>